<svg width="219" height="67" viewBox="0 0 219 67" fill="none" xmlns="http://www.w3.org/2000/svg">
<path d="M50.2627 38.3339C49.7966 37.0631 49.088 35.8977 48.5866 34.6386C48.2853 33.8804 47.8804 33.1619 47.5014 32.4387C47.1177 31.7086 46.7152 30.9901 46.3103 30.2693C46.0184 29.7498 45.7006 29.2466 45.4158 28.7247C45.065 28.0858 44.7896 27.3978 44.3824 26.7987C43.6809 25.7619 42.8781 24.793 42.1625 23.7657C41.454 22.75 40.5712 21.9005 39.6484 21.0977C38.3467 19.9697 37.0638 18.8441 36.1763 17.3393C35.8326 16.7565 35.8373 16.2417 36.1528 15.6613C36.56 14.9124 37.0214 14.1775 37.1391 13.307C37.1815 12.9887 37.1673 12.6587 37.2474 12.3545C37.4498 11.5962 37.6075 10.8403 37.544 10.0493C37.5275 9.83632 37.6052 9.64207 37.8712 9.64207C38.1395 9.64207 38.1772 9.83866 38.196 10.054C38.2714 10.8801 38.2054 11.6992 38.0666 12.5136C38.0148 12.8155 37.9441 13.115 37.9324 13.4193C37.9065 14.0114 37.8594 14.6128 38.1725 15.1628C38.2619 15.5349 38.3349 15.5817 38.6551 15.4623C38.7563 15.4249 38.8528 15.3781 38.947 15.3266C39.4695 15.0364 40.0133 14.7766 40.5053 14.442C41.8542 13.5293 42.9911 12.4481 43.2736 10.742C43.3701 10.1288 42.9841 9.66781 42.7369 9.1787C42.4615 8.63809 42.0872 8.14429 41.7482 7.63645C41.6399 7.47263 41.5199 7.31115 41.381 7.17074C40.8749 6.65821 40.3452 6.16676 39.8509 5.64487C39.5708 5.34766 39.3518 4.99662 39.0858 4.68536C38.9211 4.49345 38.7398 4.22432 38.5279 4.17752C38.0925 4.08625 37.8194 3.83584 37.5675 3.52224C37.059 2.88802 36.5294 2.28423 35.842 1.82085C35.1947 1.38322 34.6015 0.86836 33.8529 0.601568C33.4786 0.468172 33.069 0.409665 32.7206 0.234144C32.3134 0.03054 31.9061 -0.0115851 31.4706 0.0024566C31.1481 0.0118177 30.8256 0.0024566 30.5008 0.00479688C29.8629 0.014158 29.2602 0.0375608 28.627 0.299672C27.41 0.807513 26.3177 1.48619 25.2773 2.26551C24.9595 2.50422 24.6487 2.69612 24.2391 2.68442C23.8484 2.67506 23.5518 2.8459 23.2669 3.11737C22.6478 3.70712 22.0287 4.31325 21.3367 4.81173C20.1385 5.67296 19.0862 6.66055 18.3094 7.90558C18.0199 8.37364 17.8221 8.93297 17.728 9.47591C17.6197 10.1031 17.9728 10.6531 18.3235 11.1656C18.7731 11.8232 19.4699 12.1649 20.1408 12.537C20.84 12.9231 21.2849 13.4942 21.4096 14.2922C21.4449 14.5239 21.5156 14.7345 21.791 14.8656C21.9087 14.7415 22.0664 14.6433 22.1276 14.5028C22.363 13.9622 22.6737 13.445 22.702 12.8295C22.7232 12.3591 22.7632 11.8911 22.7961 11.3786C22.9727 11.3622 23.1092 11.3505 23.2787 11.3341C23.3258 11.526 23.4011 11.6734 23.3917 11.8162C23.3446 12.4925 23.5683 13.1127 23.7872 13.7305C23.919 14.1003 24.0697 14.4888 24.3145 14.7837C24.7052 15.2564 24.6911 15.8696 24.983 16.368C24.9336 17.145 25.2325 17.9547 24.7429 18.6896C24.6958 18.7598 24.7123 18.8698 24.684 18.9564C24.6323 19.1155 24.6064 19.3004 24.5051 19.4221C24.1426 19.8574 24.0673 20.412 23.8578 20.9058C23.653 21.3903 23.347 21.8513 23.3564 22.4106C23.3564 22.4528 23.3164 22.4926 23.3022 22.5347C23.2128 22.8225 23.1186 23.108 23.0386 23.3982C22.9209 23.8242 22.815 24.2548 22.7067 24.6831C22.6643 24.8445 22.5866 25.0084 22.5913 25.1675C22.6408 27.1755 22.3418 29.1928 22.8573 31.1867C23.0198 31.8162 23.0362 32.4832 23.0857 33.1362C23.1186 33.5574 23.1045 33.9857 23.0857 34.4093C23.0692 34.7416 22.7985 35.4366 22.7561 35.7666C23.0786 35.9351 22.5819 36.1785 22.8974 36.3587C24.3969 37.2106 25.3926 38.3128 26.5108 39.6023C27.4265 40.6578 28.7612 41.7648 29.4227 42.9934C29.7852 43.6651 30.0206 44.1425 30.3266 44.8422C30.6938 45.68 31.1528 46.6325 31.4801 47.4867C31.6378 47.8167 31.8755 48.1584 32.0332 48.4837C32.2545 48.1654 33.94 48.596 34.1801 48.2848C34.6085 47.7278 36.1739 46.8338 36.6165 46.2885C37.1273 45.6613 37.0167 45.3594 37.6028 44.7907C38.3938 44.0231 38.8881 43.2508 39.8603 42.7453C40.2746 42.53 39.2906 41.4839 38.9258 41.1844C38.415 41.3412 37.9277 41.5284 37.5204 41.9005C37.0237 42.3545 36.4964 42.7734 35.9786 43.204C35.7785 43.3702 35.569 43.5247 35.3642 43.6838C35.0676 43.9108 34.7286 43.9202 34.5308 43.7048C34.2719 43.4264 34.2295 43.0519 34.5097 42.8015C34.931 42.4271 35.3995 42.1041 35.8514 41.7648C36.5129 41.2663 37.2003 40.8006 37.8288 40.267C38.2431 39.9136 38.6103 39.49 38.9375 39.0524C39.5708 38.2099 40.1781 37.344 40.769 36.471C41.0773 36.017 41.3316 35.5279 41.6046 35.0505C41.6564 34.9592 41.6917 34.8539 41.7153 34.7509C41.8494 34.1589 41.9719 33.5621 42.1084 32.97C42.3179 32.0549 43.1983 30.9035 44.4883 31.0088C44.6578 31.0229 44.8367 30.9339 45.0085 30.8825C45.1874 30.8286 45.364 30.7608 45.5264 30.7046C45.7477 30.9948 45.6606 31.2335 45.6182 31.4699C45.5264 31.9941 45.3852 32.5183 45.5523 33.0542C45.5782 33.1408 45.6182 33.2227 45.6512 33.307C46.1949 33.7938 46.3809 34.4584 46.4798 35.1301C46.5574 35.6519 46.4233 36.1621 46.2679 36.6887C46.1031 37.248 46.129 37.8612 45.7194 38.3456C45.7006 38.3667 45.7006 38.4041 45.6865 38.4299C45.5641 38.6545 45.4393 38.8792 45.3122 39.1039C45.2651 39.1881 45.211 39.2724 45.1239 39.4175C45.3569 39.4292 45.1639 39.703 45.3287 39.703C46.4209 39.703 47.3978 40.4355 48.4901 40.4519C48.9632 40.4589 49.2504 40.2763 49.7259 40.3021C49.8107 40.3068 50.8135 40.384 50.9006 40.3512C50.7758 39.9768 50.4015 38.7107 50.265 38.3386L50.2627 38.3339Z" fill="#247439"/>
<path d="M32.6194 48.2193C32.5723 47.8471 32.238 47.5991 32.1439 47.234C31.8143 46.3798 31.5154 45.5139 31.1481 44.6784C30.8421 43.981 30.4702 43.3093 30.1077 42.6377C29.4462 41.409 28.6811 40.2483 27.7631 39.1904C26.6426 37.901 25.3973 36.7519 23.8978 35.9C23.5824 35.7198 22.7938 35.6449 22.7208 35.6473C22.4501 35.6543 22.1205 35.6988 21.9181 35.5677C21.5391 35.322 21.1366 35.343 20.7482 35.212C20.3103 35.0622 20.3998 34.9194 19.9101 34.8399C19.7195 34.8094 19.5382 34.7088 19.3546 34.6386C18.8108 34.4327 18.2717 34.222 17.7256 34.0208C17.5255 33.9459 17.316 33.8967 17.1112 33.8335C16.8617 33.7212 16.6098 33.6089 16.3603 33.4965C16.1461 33.3959 15.9413 33.2742 15.7318 33.1572C15.2539 32.8904 14.7666 32.633 14.2958 32.3521C14.1028 32.2375 13.9498 32.0503 13.7568 31.9332C12.9846 31.4652 12.3608 30.8544 11.89 30.0891C11.7229 29.8176 11.5887 29.5181 11.3769 29.2887C11.1697 29.0641 11.1062 28.8324 11.0967 28.5469C11.0873 28.2613 11.0402 27.9782 11.012 27.6927C11.1721 27.4914 11.3204 27.2784 11.4946 27.0912C11.7417 26.8244 12.0548 26.6044 12.2573 26.3095C12.6127 25.7877 12.907 25.226 13.2271 24.6807C13.3778 24.3554 13.6861 24.112 13.6885 23.7048C13.6885 23.4029 13.7309 23.0963 13.7991 22.8038C13.8792 22.4598 13.8368 22.1462 13.6838 21.8373C13.5684 21.4511 13.5331 21.0299 13.2059 20.7327C13.1683 20.6976 13.1494 20.6203 13.1494 20.5642C13.1494 20.2014 13.1494 19.841 13.1612 19.4783C13.1636 19.394 13.213 19.3027 13.2577 19.2255C13.5402 18.7598 13.7638 18.2403 14.131 17.8518C14.5053 17.4539 14.3923 16.9391 14.7431 16.4851C14.5218 16.4336 14.39 16.3844 14.2582 16.3751C13.8015 16.347 13.4578 16.6278 13.0859 16.8244C12.528 17.1193 11.9442 17.3697 11.471 17.8003C11.1203 17.9454 10.7789 18.1092 10.4188 18.2215C10.2964 18.259 10.1339 18.1584 9.99035 18.1303C9.80203 18.0928 9.61136 18.0554 9.42069 18.0367C9.23943 18.0203 9.05581 18.025 8.87456 18.025C8.55441 18.025 8.23662 18.0367 7.91648 18.039C7.63164 18.0413 7.34681 18.039 7.02431 18.039C6.99606 17.8752 6.97252 17.7441 6.94898 17.6154C6.99371 17.3322 6.92544 17.0795 6.74654 16.8525C6.68298 16.7706 6.64532 16.6699 6.59824 16.5763C6.42404 16.23 6.29457 15.8508 6.06388 15.5466C5.76492 15.1488 5.37415 14.8258 4.83509 14.7673C4.53142 14.5847 4.21128 14.5262 3.85817 14.6409C3.53803 15.1581 3.12608 15.6425 3.33088 16.3259C3.22966 16.5038 3.15433 16.6957 3.02721 16.8455C2.84125 17.0654 2.83418 17.2854 2.85066 17.5639C2.8742 17.9056 2.79181 18.2566 2.73767 18.603C2.67411 19.0055 2.55641 19.4034 2.53287 19.8083C2.51168 20.185 2.61526 20.5665 2.6082 20.9456C2.58937 22.0573 2.54464 23.1712 2.50698 24.2829C2.50462 24.3741 2.48814 24.4677 2.45519 24.552C2.33513 24.8609 2.18212 25.1581 2.0809 25.4741C1.95614 25.8602 1.89023 26.2674 1.76076 26.6536C1.5795 27.1965 1.63835 27.8143 1.24994 28.2964C1.21698 28.3362 1.22169 28.4158 1.2264 28.4743C1.25465 28.8043 1.15813 29.1015 1.01689 29.3987C0.932148 29.5742 0.899192 29.7755 0.852112 29.9651C0.734412 30.4518 0.62142 30.9386 0.508427 31.4254C0.491949 31.4979 0.491949 31.5775 0.484887 31.6524C0.454285 31.8607 0.428391 32.0713 0.388373 32.2773C0.324815 32.6189 0.254195 32.9583 0.185929 33.2976C0.164743 33.4006 0.120017 33.5036 0.117663 33.6065C0.0823527 34.5052 0.103539 35.4086 0.0140866 36.3025C-0.0706576 37.1544 0.242425 37.908 0.539029 38.6405C0.953334 39.6608 1.50417 40.6274 2.01734 41.6056C2.48344 42.4949 2.97778 43.3702 3.46035 44.2501C3.58511 44.4771 3.70752 44.7042 3.83464 44.9288C4.03002 45.2728 4.30308 45.5911 4.40901 45.9585C4.55731 46.4687 4.91748 46.8525 5.09403 47.3346C5.29647 47.8237 5.50833 48.3105 5.70136 48.802C5.84495 49.1647 5.96501 49.5345 6.15333 50.0657C6.14156 50.2717 6.05917 50.6531 6.28751 51.0369C6.44522 51.2991 6.55351 51.6244 6.56763 51.9286C6.6053 52.7056 6.59824 53.4849 6.56999 54.2642C6.56293 54.4912 6.46877 54.7416 6.34165 54.9335C6.18158 55.1816 6.09448 55.4086 6.16039 55.7035C6.18629 55.8228 6.16745 55.996 6.09448 56.0849C5.70136 56.5647 5.6072 57.1895 5.2847 57.7021C5.00458 58.1467 4.84921 58.6803 4.35958 58.9752C3.93821 59.0196 3.54745 58.9026 3.15197 58.7786C2.57524 58.5961 1.95614 59.125 2.08796 59.7217C2.18919 60.1804 2.30218 60.7 2.90951 60.8146C2.98249 60.8287 3.04604 60.8848 3.11902 60.9083C3.67927 61.0908 4.24423 61.1821 4.82567 61.0019C5.36945 61.0744 5.80258 60.7046 6.3134 60.6368C6.74889 60.5666 7.17732 60.4379 7.41037 60.047C7.71168 59.5439 7.94943 59.0033 8.20131 58.472C8.24368 58.3808 8.24604 58.2637 8.24133 58.1584C8.22956 57.8612 8.25545 57.5874 8.50027 57.3651C8.57795 57.2949 8.60149 57.1451 8.61326 57.0281C8.64386 56.7425 8.65328 56.457 8.67211 56.1598C8.6933 56.1317 8.71449 56.0849 8.75215 56.0615C9.06758 55.8579 9.21589 55.5982 9.1076 55.2073C9.077 55.0997 9.16175 54.9522 9.21353 54.8305C9.27945 54.6784 9.40185 54.5427 9.43716 54.3859C9.58782 53.7166 10.0727 53.2626 10.4564 52.7407C10.8825 52.7617 11.3674 52.6424 11.5581 53.2087C11.617 53.3117 11.6546 53.4451 11.7417 53.5153C12.0007 53.7236 12.0454 53.9951 12.0266 54.2946C12.0172 54.4467 11.9936 54.5965 11.9818 54.7486C11.9348 55.3524 11.8524 55.9562 11.8618 56.56C11.8688 56.9438 11.9112 57.3978 12.1231 57.688C12.4809 58.1795 12.4244 58.6429 12.2973 59.1484C12.0219 59.359 11.8524 59.6351 11.7653 59.9558C12.3067 60.4332 12.7069 60.6134 13.4084 60.714C13.6602 60.7725 13.9121 60.831 14.1664 60.8895C14.463 60.9574 14.7572 61.0697 15.0562 61.0791C16.2967 61.1212 17.5349 61.1493 18.7755 61.2289C20.4704 61.3389 22.1817 61.2219 23.8837 61.1891C24.418 61.1797 24.9548 61.0931 25.4891 61.0978C26.6849 61.1072 27.8808 61.147 29.0766 61.1867C29.5969 61.2031 30.1171 61.2546 30.635 61.2897C30.9857 61.3131 31.3365 61.3342 31.6896 61.3576C31.6025 61.3318 31.5154 61.2804 31.4283 61.2827C30.8256 61.2944 30.3548 61.1142 29.9994 60.5759C29.5898 59.9534 29.1166 59.3918 28.9895 58.6148C28.8553 57.798 28.9707 57.1053 29.6416 56.5647C29.8605 56.3868 29.9382 56.1645 29.9405 55.8837C29.9405 55.5818 29.9735 55.2775 30.0347 54.9827C30.1336 54.5076 30.256 54.0349 30.3902 53.5668C30.5455 53.0309 30.6962 52.4903 30.8986 51.9684C31.1364 51.3623 31.4283 50.7748 31.6943 50.1804C31.9108 49.8504 32.1721 49.5368 32.3275 49.1811C32.4358 48.933 32.6476 48.5048 32.6147 48.231L32.6194 48.2193Z" fill="#AFD952"/>
<path d="M31.699 50.171C31.9155 49.8411 32.1768 49.5275 32.3322 49.1717C32.4405 48.9237 32.5017 48.706 32.6194 48.2216C32.8407 47.9033 33.0502 47.5687 33.2903 47.2574C33.7187 46.7004 34.1589 46.1528 34.6038 45.6075C35.1146 44.9803 35.616 44.3555 36.2022 43.7868C36.9931 43.0192 37.8618 42.3896 38.834 41.8841C39.2483 41.6688 39.1776 41.7109 39.5943 41.5518C39.7544 41.4699 39.9498 41.3552 40.1546 41.2663C40.5712 41.0837 40.9902 40.8942 41.4187 40.7397C41.8777 40.5736 42.3508 40.4402 42.8193 40.2951C42.9652 40.2506 43.1936 40.0868 43.3254 40.0166C43.9469 39.6889 44.4106 39.4643 45.098 39.4175C45.331 39.4011 45.7124 39.3613 45.8771 39.3613C46.9694 39.3613 47.8427 39.4362 48.935 39.4502C49.4082 39.4572 49.8813 39.5251 50.3545 39.5532C50.4392 39.5579 50.8559 39.8013 51.6138 40.0096C51.9105 39.9932 52.2141 40.1242 52.5178 40.15C53.41 40.2225 54.3092 40.2342 55.1755 39.9908C55.5615 39.8808 55.9287 39.6515 56.2559 39.4104C56.8138 39.0032 57.1928 38.4252 57.4165 37.791C57.6731 37.0678 57.7037 36.3213 57.1434 35.6707C56.7738 35.2424 56.3689 34.8328 56.0653 34.3625C55.7946 33.9459 55.6204 33.4614 55.4415 32.9934C55.2296 32.4387 55.0672 31.8654 54.8624 31.306C54.5022 30.3184 54.4716 29.27 54.3468 28.2496C54.208 27.1146 54.2951 25.9608 54.6058 24.8445C54.6552 24.669 54.7235 24.4935 54.82 24.3414C54.9518 24.1378 55.1472 24.0161 55.4085 24.0816C56.4231 24.339 57.2776 24.8445 57.9085 25.687C58.3816 26.3212 58.7182 27.0116 58.8477 27.8026C58.9066 28.163 59.0878 28.2239 59.4527 28.0975C59.6128 27.4142 59.7775 26.7565 59.9188 26.0919C60.0647 25.3968 60.4437 24.8399 60.9051 24.2758C61.6702 24.6035 62.3528 24.9264 62.6753 25.7736C62.8825 26.3212 63.0661 26.8595 63.1155 27.4422C63.1226 27.5171 63.1485 27.592 63.1791 27.6622C63.5934 28.6264 63.4874 29.5836 63.2379 30.5735C63.0802 31.2007 63.0731 31.8677 63.0261 32.5207C63.0143 32.6775 63.1084 32.8413 63.1579 33.0028C63.2356 33.2602 63.3062 33.5223 63.3956 33.7774C63.4498 33.9318 63.5016 34.105 63.6051 34.2244C64.1489 34.8446 64.8269 35.2705 65.5849 35.5981C66.1592 35.8462 66.7242 36.1364 67.2397 36.4851C67.8094 36.8689 68.1648 37.4469 68.4144 38.0905C68.638 38.6686 68.9723 39.2115 69.1323 39.8036C69.363 40.6531 69.9045 41.3248 70.2976 42.0807C70.5 42.4715 70.5659 42.8787 70.4506 43.2789C70.1846 44.2033 69.7185 44.9827 68.791 45.4226C68.1131 45.7456 67.4539 46.1107 66.7925 46.4687C66.3546 46.7051 66.0557 47.0163 65.8509 47.5219C65.6625 47.9852 65.559 48.4299 65.5048 48.912C65.4742 49.1951 65.3565 49.4666 65.2835 49.7451C65.2247 49.9651 65.1847 50.1898 65.1117 50.4027C65.0411 50.6134 64.9399 50.817 64.8481 51.0206C63.97 52.9747 62.4493 54.3063 60.625 55.3548C60.0671 55.6754 59.5233 56.0217 58.9795 56.3658C58.8642 56.4383 58.7371 56.5319 58.6829 56.6466C58.351 57.3651 57.9814 58.0789 58.0827 58.912C58.1274 59.2794 58.391 59.5462 58.7583 59.6211C59.3726 59.7451 59.987 59.8785 60.5967 60.0283C60.9004 60.1032 61.1711 60.246 61.3147 60.5549C61.5972 61.168 61.1711 61.8701 60.472 61.9146C60.0741 61.938 59.6716 61.9193 59.2714 61.9193C58.2569 61.9193 57.2399 61.8912 56.2253 61.9286C55.3685 61.959 54.7329 61.5425 54.2174 60.9691C53.5018 60.1734 52.8544 59.3169 52.4636 58.2965C52.3224 57.9244 51.9222 57.7933 51.4891 57.9478C50.3521 58.3503 49.3093 58.9307 48.3182 59.6071C48.2829 59.6305 48.2665 59.6796 48.2029 59.7709C48.2688 59.8879 48.3394 60.0306 48.4265 60.1617C48.589 60.4028 48.7655 60.6344 48.9279 60.8755C49.0362 61.0346 49.1021 61.2031 48.9421 61.4067C48.862 61.4208 48.7584 61.4535 48.6549 61.4559C47.565 61.4863 46.4727 61.5191 45.3828 61.5355C43.1065 61.5729 40.8302 61.6408 38.5538 61.6267C36.48 61.6127 34.4061 61.5097 32.3322 61.4418C32.118 61.4348 31.9061 61.388 31.6919 61.3623C31.6048 61.3365 31.5177 61.285 31.4306 61.2874C30.828 61.2991 30.3572 61.1189 30.0017 60.5806C29.5921 59.9581 29.119 59.3964 28.9919 58.6195C28.8577 57.8027 28.973 57.11 29.6439 56.5694C29.8629 56.3915 29.9405 56.1692 29.9429 55.8884C29.9429 55.5865 29.9758 55.2822 30.0371 54.9873C30.1359 54.5123 30.2583 54.0395 30.3925 53.5715C30.5479 53.0355 30.6985 52.4949 30.901 51.9731C31.1387 51.3669 31.4306 50.7795 31.6966 50.1851L31.699 50.171Z" fill="#2EBF32"/>
<path d="M146.591 43.6463C146.424 43.0894 146.169 42.6002 145.807 42.1603C145.202 41.4231 144.336 41.175 143.455 41.0252C142.342 40.838 141.233 40.8801 140.124 41.1961C138.889 41.5495 137.766 42.0503 136.892 43.0215C136.643 43.2976 136.44 43.2719 136.217 42.963C136.028 42.7032 135.878 42.42 135.68 42.1673C135.089 41.409 134.213 41.189 133.335 41.0229C131.975 40.7655 130.642 40.9503 129.338 41.3786C128.493 41.6571 127.771 42.1345 127.102 42.7102C126.716 43.0425 126.424 42.9279 126.321 42.4388C126.271 42.2024 126.205 41.9637 126.113 41.7414C126.012 41.4886 125.814 41.3716 125.522 41.4184C125.327 41.4488 125.125 41.4558 124.925 41.4558C123.418 41.4558 121.909 41.4512 120.403 41.4512C120.254 41.4512 120.106 41.4769 119.899 41.4956C119.887 41.7156 119.873 41.8654 119.873 42.0152C119.873 42.6424 119.873 43.2672 119.873 43.8944C119.868 49.5158 119.863 55.1395 119.856 60.7608C119.856 61.175 119.986 61.3295 120.395 61.3318C122.333 61.3389 124.273 61.3389 126.21 61.3318C126.554 61.3318 126.65 61.2312 126.688 60.9036C126.704 60.7678 126.7 60.6298 126.7 60.4917C126.7 56.5951 126.702 52.6985 126.704 48.802C126.704 48.5726 126.697 48.3433 126.69 48.1139C126.683 47.8589 126.801 47.7161 127.024 47.5733C127.618 47.1989 128.274 47.1755 128.933 47.1731C129.112 47.1731 129.317 47.2738 129.468 47.3861C129.793 47.6295 129.922 47.9618 129.92 48.3831C129.908 52.509 129.91 56.6326 129.913 60.7585C129.913 60.9317 129.95 61.1048 129.974 61.3108H136.506C136.753 61.0908 136.713 60.8029 136.713 60.5338C136.716 56.684 136.716 52.8343 136.716 48.9822C136.716 48.8745 136.728 48.7645 136.706 48.6616C136.579 48.0742 136.744 47.7278 137.358 47.461C138.003 47.1802 138.634 47.1848 139.289 47.2012C139.545 47.2083 139.715 47.3557 139.781 47.6108C139.818 47.7582 139.88 47.9057 139.884 48.0554C139.903 48.5563 139.908 49.0594 139.91 49.5626C139.91 53.0613 139.91 56.56 139.91 60.0587C139.91 60.3349 139.896 60.6087 139.903 60.8825C139.913 61.1844 140.011 61.285 140.317 61.3225C140.423 61.3342 140.532 61.3318 140.64 61.3318C142.533 61.3318 144.423 61.3318 146.315 61.3318C146.466 61.3318 146.614 61.3108 146.765 61.2991C146.812 61.1821 146.866 61.1002 146.873 61.0159C146.918 60.5455 146.982 60.0728 146.984 59.6024C146.993 55.4928 146.979 51.3833 146.996 47.2714C147 46.0451 146.949 44.8352 146.591 43.6463Z" fill="#2EBF32"/>
<path d="M94.1954 48.7084C94.1319 47.8448 93.9765 46.9859 93.8588 46.1247C93.8282 45.8977 93.8188 45.6637 93.7435 45.4507C93.5551 44.9054 93.4068 44.3531 93.1455 43.8265C92.5994 42.7196 91.8179 41.8584 90.6527 41.4441C88.753 40.7678 86.825 40.7631 84.9254 41.4839C84.4852 41.6501 84.0732 41.9005 83.8096 42.3358C83.5954 42.6915 83.247 42.7102 82.9951 42.3756C82.8703 42.2118 82.8232 41.9918 82.7385 41.7975C82.6773 41.6548 82.6137 41.512 82.5619 41.3903C82.2489 41.4161 82.004 41.4512 81.7616 41.4512C80.3939 41.4512 79.0239 41.4465 77.6562 41.4441C77.5244 41.4441 77.3925 41.4675 77.2301 41.4839C77.216 41.6688 77.1925 41.8186 77.1925 41.966C77.1925 49.6515 77.1948 57.3346 77.1948 65.0201C77.1948 65.5233 77.176 66.0264 77.1619 66.5319C77.1524 66.8619 77.296 66.9977 77.6303 66.9953C79.4758 66.9836 81.3214 66.9719 83.1646 66.9649C83.3882 66.9649 83.6118 66.986 83.8849 67C83.9131 66.7777 83.9532 66.6045 83.9555 66.429C83.9602 65.3595 83.9579 64.29 83.9555 63.2205C83.9555 62.6564 83.9437 62.0924 83.9555 61.5308C83.9602 61.3599 84.0356 61.1891 84.1038 60.9129C84.3745 61.0159 84.5793 61.051 84.7276 61.1587C85.3373 61.5986 86.0482 61.7367 86.7638 61.8116C87.8796 61.931 88.9695 61.704 90.043 61.4255C90.3349 61.3482 90.6362 61.2406 90.8857 61.0768C91.486 60.6766 92.0651 60.2413 92.4794 59.6351C93.2609 58.4931 93.7293 57.234 93.8988 55.865C93.9318 55.6075 93.8894 55.3384 93.9506 55.0903C94.2284 53.9693 94.2825 52.8273 94.2778 51.6805C94.2755 50.6883 94.2613 49.696 94.1884 48.7084H94.1954ZM87.3429 53.9178C87.3076 54.4467 87.1946 54.978 87.0604 55.4928C86.9051 56.092 86.4296 56.4173 85.8058 56.4196C85.4668 56.4196 85.1278 56.4196 84.7912 56.3939C84.1721 56.347 83.9484 56.1037 83.9461 55.4835C83.9437 54.4444 83.9508 53.4077 83.9532 52.3686C83.9532 52.1252 83.9532 51.8795 83.9532 51.6361H83.9461C83.9461 50.37 83.9602 49.1015 83.939 47.8354C83.932 47.4002 84.1274 47.1357 84.4875 46.9719C85.0219 46.7262 85.601 46.6794 86.1542 46.8338C86.6862 46.9812 86.9498 47.4633 87.0699 47.9548C87.317 48.9635 87.4512 49.9932 87.4324 51.037C87.4135 51.9965 87.4065 52.9607 87.3429 53.9178Z" fill="#2EBF32"/>
<path d="M166.381 48.3924C166.355 48.1958 166.303 47.9993 166.303 47.8027C166.299 47.0608 166.075 46.354 165.856 45.666C165.512 44.5801 164.962 43.5902 164.048 42.846C163.752 42.6049 163.507 42.2866 163.18 42.1018C161.791 41.3107 160.261 41.0088 158.679 40.9293C157.412 40.8661 156.167 40.9831 154.933 41.299C153.7 41.615 152.601 42.1462 151.713 43.0636C151.146 43.651 150.696 44.3227 150.418 45.095C150.188 45.7362 149.976 46.3845 149.766 47.0327C149.715 47.1919 149.7 47.3627 149.682 47.5289C149.578 48.5141 149.458 49.497 149.385 50.4846C149.343 51.058 149.333 51.6431 149.383 52.2165C149.463 53.1877 149.717 54.1425 149.682 55.1278C149.675 55.308 149.715 55.4952 149.769 55.6684C149.966 56.3049 150.155 56.9485 150.393 57.571C150.925 58.9635 151.847 60.0306 153.168 60.7491C153.425 60.8872 153.667 61.0697 153.942 61.1493C154.467 61.3014 155.006 61.4231 155.548 61.5074C156.504 61.6571 157.452 61.8865 158.429 61.7999C159.086 61.7414 159.743 61.6595 160.397 61.5659C161.235 61.4465 162.033 61.2148 162.786 60.8053C164.429 59.9113 165.369 58.4884 165.891 56.7706C166.117 56.0334 166.228 55.2565 166.332 54.4889C166.485 53.3562 166.586 52.2165 166.715 51.0299C166.605 50.1734 166.492 49.2817 166.376 48.3901L166.381 48.3924ZM159.74 53.073C159.691 53.9085 159.639 54.7486 159.526 55.5771C159.39 56.5904 158.114 57.131 157.273 56.5436C156.744 56.1739 156.452 55.7198 156.381 55.0014C156.247 53.6604 156.186 52.3218 156.219 50.9808C156.247 49.8387 156.36 48.699 156.435 47.5593C156.464 47.1076 156.791 46.8361 157.113 46.6255C157.603 46.3072 158.198 46.3143 158.709 46.5272C159.173 46.7215 159.474 47.1029 159.568 47.6786C159.776 48.9541 159.743 50.2342 159.747 51.5144C159.747 52.0339 159.773 52.5535 159.743 53.0707L159.74 53.073Z" fill="#2EBF32"/>
<path d="M108.374 41.0065C108.251 40.9737 108.15 40.9293 108.049 40.9246C107.008 40.8872 105.994 41.0369 105.026 41.4207C104.734 41.5354 104.473 41.7437 104.219 41.9379C104.063 42.0573 103.955 42.2375 103.812 42.3709C103.64 42.53 103.444 42.6728 103.192 42.5792C102.933 42.4832 102.91 42.2492 102.886 42.0128C102.839 41.5284 102.736 41.4465 102.244 41.4465C100.629 41.4465 99.0141 41.4465 97.3992 41.4488C97.2627 41.4488 97.1285 41.4629 96.9167 41.4769C96.8931 41.7039 96.8578 41.8818 96.8578 42.0573C96.8578 48.0765 96.8578 54.0957 96.8578 60.1126C96.8578 60.2811 96.8578 60.4496 96.8484 60.6157C96.8107 61.2078 96.9119 61.3318 97.4934 61.3318C99.3083 61.3365 101.123 61.3365 102.938 61.3318C103.418 61.3318 103.531 61.2055 103.531 60.7304C103.531 57.8121 103.531 54.8961 103.534 51.9777C103.534 50.8802 103.48 49.7826 103.696 48.692C103.779 48.2754 104.266 47.6599 104.69 47.5991C105.311 47.5102 105.937 47.4423 106.563 47.4048C107.067 47.3744 107.573 47.3978 108.119 47.3978C108.185 47.2036 108.282 47.0374 108.294 46.8689C108.341 46.2604 108.378 45.652 108.388 45.0412C108.407 43.8195 108.404 42.5979 108.409 41.3763C108.409 41.2569 108.388 41.1399 108.374 41.0042V41.0065Z" fill="#2EBF32"/>
<path d="M116.829 42.1556C116.829 41.9964 116.789 41.8373 116.768 41.6594C116.231 41.6594 115.744 41.6594 115.257 41.6594C113.689 41.6594 112.124 41.6594 110.556 41.6594C110.287 41.6594 110.167 41.7835 110.17 42.0573C110.17 42.7126 110.17 43.3679 110.174 44.0231C110.191 45.6871 110.226 47.351 110.226 49.0149C110.221 52.9092 110.198 56.8034 110.189 60.6976C110.189 60.8989 110.247 61.0978 110.283 61.3178H116.784C116.803 61.1423 116.834 60.9972 116.834 60.8497C116.834 54.6176 116.834 48.3878 116.834 42.1556H116.829Z" fill="#2EBF32"/>
<path d="M117.272 37.3299C117.213 36.9438 117.048 36.5717 117.003 36.1832C116.869 35.0247 115.68 34.4935 114.687 34.3976C113.971 34.3274 113.242 34.3859 112.519 34.3835C111.862 34.3835 111.3 34.6714 110.789 35.0224C110.528 35.2026 110.29 35.5092 110.186 35.8087C109.828 36.8408 109.765 37.8963 110.13 38.9517C110.273 39.3707 110.509 39.7123 110.89 39.951C111.707 40.4636 112.644 40.4472 113.581 40.5853C114.167 40.5057 114.786 40.4659 115.381 40.3278C115.993 40.1851 116.549 39.8621 116.803 39.2583C117.062 38.6475 117.375 38.025 117.272 37.3276V37.3299Z" fill="#2EBF32"/>
<path d="M205.302 49.146C205.333 47.6763 205.062 46.2417 204.57 44.8469C204.038 43.3374 202.986 42.3334 201.55 41.6875C200.587 41.2546 199.554 41.0931 198.515 40.9761C196.856 40.7889 195.234 41.0065 193.64 41.4675C193.348 41.5518 193.059 41.6641 192.786 41.7999C191.364 42.5113 190.338 43.6183 189.606 45.006C189.422 45.3524 189.295 45.7315 189.165 46.1036C189.057 46.4172 188.986 46.7425 188.895 47.0608C188.84 47.2527 188.758 47.4376 188.73 47.6318C188.631 48.3082 188.537 48.9869 188.466 49.6679C188.341 50.8708 188.285 52.0714 188.584 53.2626C188.657 53.5574 188.725 53.871 188.699 54.1682C188.629 54.999 189.099 55.6894 189.267 56.4594C189.368 56.9321 189.686 57.3627 189.923 57.805C190.554 58.9728 191.437 59.909 192.572 60.6064C192.896 60.8076 193.224 61.0299 193.579 61.1516C194.066 61.3201 194.58 61.4278 195.09 61.5191C196.041 61.6899 196.995 61.8935 197.974 61.7976C198.967 61.7016 199.961 61.601 200.952 61.4793C201.573 61.4021 202.197 61.3084 202.807 61.168C203.306 61.051 203.81 60.8989 204.203 60.5151C204.116 59.703 204.064 58.9096 203.937 58.1303C203.81 57.351 203.843 56.5366 203.581 55.8509C203.028 55.9515 202.553 56.0405 202.077 56.1294C201.941 56.1551 201.806 56.1902 201.672 56.216C200.709 56.3939 199.751 56.6466 198.779 56.7285C197.564 56.8291 196.456 56.5109 195.719 55.425C195.644 55.315 195.596 55.1839 195.559 55.0552C195.467 54.7346 195.411 54.4046 195.305 54.0887C195.152 53.6323 195.159 53.5738 195.559 53.2953C197.11 53.2953 198.661 53.3023 200.213 53.3C201.755 53.3 203.296 53.3164 204.824 53.286C204.874 52.6798 204.916 52.1556 204.961 51.629C205.078 50.8029 205.279 49.9768 205.295 49.1483L205.302 49.146ZM195.1 49.6258C195.14 49.2794 195.142 48.9284 195.225 48.596C195.323 48.2005 195.448 47.798 195.644 47.4423C195.855 47.0561 196.227 46.8198 196.691 46.7917C196.981 46.773 197.275 46.7659 197.564 46.78C198.252 46.8127 198.869 47.3674 198.993 48.0461C199.095 48.5914 199.085 49.3824 198.974 49.71C198.595 49.8668 195.5 49.8294 195.097 49.6234L195.1 49.6258Z" fill="#247439"/>
<path d="M218.944 41.718C218.802 41.7039 218.67 41.6758 218.536 41.6758C217.705 41.6805 216.877 41.7039 216.046 41.6969C215.813 41.6969 215.582 41.6056 215.318 41.5518C215.318 41.3248 215.318 41.161 215.318 40.9948C215.318 40.1242 215.323 39.2536 215.321 38.3807C215.321 38.156 215.347 37.915 215.163 37.798H209.372C209.252 38.465 209.123 39.0875 209.031 39.7147C208.937 40.3559 208.878 41.0018 208.8 41.6758C208.591 41.6969 208.395 41.7156 208.2 41.7343C207.64 41.7039 207.082 41.7086 206.526 41.7297C206.507 41.8677 206.493 41.9286 206.493 41.9871C206.484 43.4217 206.474 44.8563 206.472 46.2885C206.472 46.3892 206.524 46.4898 206.552 46.5904C206.835 46.6255 207.115 46.6747 207.399 46.6911C207.717 46.7074 208.035 46.6957 208.322 46.6957C208.541 46.9625 208.553 47.2176 208.539 47.4821C208.513 47.9384 208.482 48.3971 208.482 48.8535C208.475 51.4208 208.485 53.988 208.473 56.5553C208.471 57.2012 208.574 58.142 208.574 58.224C208.574 58.7482 209.007 59.6351 209.285 59.9979C209.615 60.4285 209.989 60.8919 210.455 61.1353C211.401 61.6267 212.477 61.7788 213.534 61.7905C214.622 61.8022 215.711 61.6805 216.799 61.601C217.347 61.5612 217.896 61.4886 218.47 61.4278C218.524 61.2616 218.605 61.1212 218.609 60.9808C218.659 59.3707 218.696 57.7582 218.741 56.0849C218.496 56.0849 218.334 56.0803 218.171 56.0849C217.54 56.1013 216.91 56.1364 216.281 56.1317C215.558 56.1271 215.316 55.8673 215.316 55.1582C215.316 52.5137 215.314 49.8715 215.314 47.227C215.314 47.0936 215.332 46.9625 215.349 46.7706C215.603 46.7566 215.827 46.7308 216.05 46.7332C216.82 46.7355 217.588 46.7566 218.357 46.7519C218.769 46.7496 218.885 46.6325 218.896 46.23C218.936 44.8258 218.969 43.4217 219 42.0175C219 41.9309 218.969 41.842 218.946 41.7203L218.944 41.718Z" fill="#247439"/>
<path d="M186.013 47.7606C185.959 47.0983 186.039 46.4102 185.712 45.7854C185.686 45.7362 185.705 45.6637 185.691 45.6052C185.625 45.3267 185.568 45.0435 185.484 44.7697C185.406 44.5216 185.295 44.2852 185.199 44.0442C184.709 42.8179 183.867 41.9005 182.621 41.4535C181.028 40.8801 179.389 40.8006 177.723 41.2125C176.917 41.4114 176.221 41.7343 175.71 42.4013C175.569 42.5862 175.399 42.7641 175.128 42.6728C174.891 42.5932 174.898 42.3756 174.881 42.1766C174.874 42.1018 174.86 42.0245 174.839 41.952C174.712 41.5378 174.483 41.3927 174.048 41.4301C173.864 41.4465 173.681 41.4558 173.495 41.4558C172.127 41.4512 170.757 41.4441 169.389 41.4395C169.286 41.4395 169.18 41.4629 169.017 41.4839C169.001 41.7156 168.973 41.9379 168.973 42.1603C168.973 50.1219 168.973 58.0812 168.973 66.0428C168.973 66.2254 168.959 66.4103 168.975 66.5928C169.001 66.8877 169.13 66.9953 169.425 66.993C171.162 66.986 172.899 66.9789 174.639 66.9719C174.959 66.9719 175.279 66.9719 175.677 66.9719C175.71 66.8268 175.75 66.6607 175.788 66.4945C175.788 64.9031 175.788 63.3141 175.788 61.7227C175.802 61.4723 175.813 61.2219 175.828 60.9504C176.258 60.9153 176.517 61.1704 176.826 61.2757C177.419 61.4769 178.012 61.7297 178.624 61.8046C179.749 61.9427 180.865 61.7648 181.946 61.4278C182.365 61.2967 182.774 61.1048 183.149 60.8731C184.624 59.9581 185.227 58.465 185.663 56.9087C185.87 56.1692 185.931 55.3828 185.999 54.6129C186.098 53.4896 186.199 52.3592 186.199 51.2335C186.199 50.0751 186.107 48.9167 186.013 47.7606ZM179.222 54.7978C179.189 55.3641 178.904 55.8135 178.516 56.1973C178.405 56.3073 178.222 56.3962 178.069 56.4032C177.593 56.4196 177.113 56.4313 176.642 56.3728C175.978 56.2909 175.83 56.0709 175.792 55.3033C175.799 54.1191 175.811 52.9349 175.811 51.7484C175.811 50.487 175.799 49.2279 175.792 47.9665C175.813 47.3276 176.009 47.0515 176.682 46.8876C177.063 46.794 177.473 46.7823 177.868 46.7917C178.05 46.7964 178.255 46.9064 178.4 47.028C178.895 47.4376 179.173 47.9805 179.215 48.6171C179.352 50.6765 179.342 52.7383 179.22 54.7978H179.222Z" fill="#247439"/>
<path d="M128.995 20.2857C128.453 19.6795 127.782 19.2957 126.928 19.1132C126.191 18.9564 125.544 18.9821 124.83 19.1413C124.223 19.277 123.689 19.5017 123.232 19.8855C122.201 20.7561 121.737 21.9215 121.721 23.2321C121.704 24.4888 122.18 25.577 123.136 26.4359C123.738 26.9765 124.454 27.2152 125.247 27.358C126.109 27.5148 126.902 27.3791 127.653 27.0187C129.27 26.2417 129.948 24.8633 130.021 23.5293C130.042 22.0596 129.71 21.0837 128.997 20.2857H128.995ZM124.124 23.9997C124.124 23.527 124.138 23.0519 124.12 22.5791C124.098 22.0245 124.287 21.5307 124.668 21.168C125.45 20.4214 126.259 20.3044 127.076 21.1469C127.443 21.5237 127.705 21.9753 127.634 22.5464C127.608 22.757 127.629 22.9723 127.629 23.1876H127.632C127.632 23.4614 127.639 23.7376 127.632 24.0114C127.611 24.6924 126.968 25.5185 126.318 25.7455C125.756 25.9445 125.261 25.7619 124.859 25.4202C124.437 25.0622 124.12 24.5988 124.122 23.9974L124.124 23.9997Z" fill="#B9B9B9"/>
<path d="M110.817 23.7867C110.786 22.9419 110.403 22.2398 109.758 21.746C109.183 21.306 108.538 20.955 107.827 20.7186C107.02 20.4495 105.944 20.2061 105.706 19.2723C105.622 18.9423 105.619 18.493 105.822 18.1583C106.038 17.7979 106.446 17.475 106.858 17.4001C106.914 17.3907 107.87 17.0116 109.049 17.5475C109.146 17.592 109.261 17.6388 109.355 17.6809C109.76 17.8635 109.892 17.819 110.028 17.4071C110.094 17.2059 110.191 17.014 110.245 16.8103C110.283 16.6629 110.273 16.5014 110.28 16.4008C109.899 16.2463 109.593 16.1129 109.28 15.9983C109.139 15.9468 108.983 15.921 108.837 15.9C108.049 15.7853 107.171 15.7923 106.495 15.9327C105.674 16.1036 104.934 16.5482 104.398 17.2597C104.167 17.5663 103.988 17.8635 103.873 18.2449C103.706 18.7949 103.691 19.27 103.877 19.8223C104.073 20.4003 104.367 20.8544 104.836 21.2288C105.44 21.7132 106.149 21.9917 106.853 22.2889C107.496 22.5604 108.136 22.8108 108.609 23.4006C109.148 24.0722 108.786 25.0294 108.15 25.4085C108.098 25.439 107.543 25.7689 107.258 25.7572C106.559 25.7338 105.848 25.8204 105.167 25.5817C104.814 25.4577 104.466 25.3243 104.075 25.1815C103.894 25.6894 103.736 26.1364 103.574 26.5904C104.12 26.9789 104.584 27.1169 105.255 27.2784C105.521 27.3135 105.801 27.3603 106.067 27.3603C107.1 27.3533 107.359 27.3978 107.985 27.2597C108.385 27.1708 108.783 27.0233 109.134 26.8221C110.205 26.2019 110.874 25.3149 110.826 24.0161C110.824 23.9388 110.826 23.864 110.824 23.7867H110.817Z" fill="#B9B9B9"/>
<path d="M84.0167 17.5054C83.6401 16.9578 83.1198 16.5857 82.5337 16.3212C82.2371 16.1878 82.0535 16.1317 81.7286 16.0498C81.4979 15.9913 81.0977 15.9257 80.8694 15.921C79.836 15.8953 78.7955 15.8345 77.7786 16.0732C77.4773 16.1434 77.0912 16.1621 77.0112 16.5904C76.9947 16.7074 76.9641 16.8267 76.9641 16.9437C76.9618 20.157 76.9618 23.3702 76.9641 26.5834C76.9641 26.6863 76.9547 26.7846 76.9712 26.8876V27.2152H79.2287C79.2287 27.0233 79.2287 26.8899 79.2287 26.7565C79.231 26.464 79.224 26.4359 79.2287 26.1457C79.2263 25.2915 79.2287 25.3922 79.2287 25.2541C79.2404 24.5824 79.2287 24.1588 79.2287 23.4895C79.2287 23.3585 79.2169 23.1829 79.2287 23.0238C79.4688 23.0238 79.5347 23.0308 79.7301 23.0238C80.1538 23.0027 80.5799 23.0027 80.9989 22.9466C81.4673 22.8834 81.9758 22.8459 82.3736 22.6306C82.9268 22.3264 83.4447 21.9122 83.8778 21.4488C84.1744 21.1305 84.4216 20.6671 84.4734 20.2435C84.584 19.3098 84.5958 18.3549 84.0144 17.5124L84.0167 17.5054ZM81.9099 18.0413C82.0488 18.1818 82.1288 18.2637 82.2324 18.4883C82.3595 18.7692 82.3948 19.0172 82.4231 19.3145C82.4843 19.9674 82.1382 20.412 81.7451 20.8473C81.6651 20.9363 81.5521 21.0158 81.4556 21.0626C80.8435 21.3552 80.3492 21.4371 79.7489 21.3809C79.3558 21.3435 79.2334 21.2405 79.2334 20.838C79.231 19.8644 79.2263 18.8441 79.2216 17.8214C79.2216 17.7628 79.2334 17.695 79.2334 17.592C79.8266 17.5312 80.4551 17.5335 81.0718 17.6505C81.2319 17.6809 81.3944 17.7301 81.5474 17.7933C81.6745 17.8448 81.8181 17.943 81.9146 18.0413H81.9099Z" fill="#B9B9B9"/>
<path d="M88.6353 23.7493C89.0143 23.7493 89.624 23.7446 90.0029 23.7493C90.7209 23.7586 91.4648 23.7446 92.1828 23.7633C92.6018 23.775 92.8795 23.5036 92.8748 23.0893C92.8701 22.757 92.8325 22.4247 92.7854 22.0947C92.6771 21.3388 92.404 20.6531 91.8697 20.0914C91.3541 19.5508 90.7798 19.1576 89.9959 19.0336C89.5298 18.9611 89.1296 18.9634 88.6564 19.0547C88.1456 19.153 87.6866 19.2653 87.2605 19.5976C86.173 20.4471 85.4738 21.5518 85.4385 22.9887C85.4315 23.3233 85.4574 23.5761 85.4903 23.9084C85.5657 24.655 85.7398 25.2283 86.1259 25.776C86.9969 27.0163 88.3104 27.3954 89.7393 27.4165C90.3419 27.4235 90.9398 27.4235 91.5636 27.2106C92.3616 26.9391 92.4935 26.9929 92.2181 26.0708C92.1804 25.9445 92.1004 25.8298 92.0203 25.666C91.5472 25.7549 91.0928 25.8836 90.6267 25.9328C89.784 26.0217 88.72 25.8157 88.3716 25.5981C87.9173 25.3149 87.4606 24.999 87.3241 24.435C87.2747 24.2267 87.2582 24.0395 87.2982 23.7493C87.9267 23.7493 88.1621 23.7493 88.6353 23.7493ZM89.93 20.6086C90.6032 21.0743 90.6762 21.5213 90.7115 22.2328C89.6381 22.2328 88.7412 22.2187 87.4677 22.2328C87.5006 22.0058 87.4677 21.1609 88.341 20.6297C88.7836 20.3606 89.5416 20.3418 89.93 20.6086ZM91.1399 22.1158C91.1752 22.1485 91.2105 22.1673 91.2506 22.1696C91.2105 22.1673 91.1729 22.1485 91.1399 22.1158ZM91.566 22.0175C91.5331 22.0432 91.5001 22.0666 91.4718 22.0877C91.5024 22.069 91.5331 22.0456 91.566 22.0175Z" fill="#B9B9B9"/>
<path d="M139.654 22.0807C139.585 21.4254 139.348 20.9643 139.053 20.4588C138.681 19.965 138.279 19.4642 137.686 19.2606C137.231 19.1038 136.944 19.0453 136.469 18.9962C136.243 18.9728 135.567 19.0851 135.391 19.153C134.929 19.3262 134.689 19.394 134.343 19.7123C134.065 19.82 133.75 20.2365 133.493 19.9042C133.404 19.7895 133.392 19.6421 133.345 19.5181C133.321 19.4081 133.298 19.3004 133.277 19.2068C132.38 19.2068 132.191 19.2138 131.834 19.2115V20.3582C131.836 20.5688 131.829 20.8005 131.834 21.0135C131.848 21.5143 131.836 22.0222 131.834 22.523C131.834 22.8857 131.834 23.5831 131.834 23.5831V25.3056C131.834 25.3056 131.834 28.4158 131.834 29.9885C131.834 30.2997 131.834 30.501 131.834 30.501C131.834 30.501 133.248 30.4869 133.717 30.4869V27.4937C133.717 27.3557 133.717 27.2691 133.731 27.0725C133.752 26.7706 133.809 26.6676 134.122 26.6817C134.197 26.684 134.275 26.691 134.343 26.7238C134.505 26.8033 134.677 26.9929 134.873 27.0935C135.44 27.3837 135.923 27.4773 136.61 27.3697C138.166 27.1263 138.99 26.1153 139.607 24.8235C139.639 24.7556 139.644 24.6737 139.656 24.6035C139.854 23.5433 139.75 22.97 139.656 22.076L139.654 22.0807ZM135.087 25.9C134.399 25.7526 133.672 24.765 133.707 24.0722C133.722 23.7984 133.707 23.5246 133.707 23.2485C133.707 23.2485 133.707 23.2485 133.71 23.2485C133.71 22.9887 133.719 22.7289 133.71 22.4715C133.682 21.7413 134.503 20.8661 135.172 20.7748C136.059 20.6531 136.629 20.6999 137.147 21.395C137.443 21.7951 137.54 22.2047 137.551 22.7079C137.561 23.0449 137.544 23.4076 137.547 23.7586C137.559 25.0809 136.377 26.1785 135.084 25.9H135.087Z" fill="#B9B9B9"/>
<path d="M97.9218 25.7502C97.7005 25.7221 97.4698 25.6847 97.2721 25.5794C96.7872 25.3196 96.8507 24.7556 96.8649 24.2501C96.8931 23.2461 96.8813 22.2398 96.8766 21.2335C96.8766 21.058 96.8766 20.8801 96.8766 20.7163H98.7481C98.7528 20.384 98.7481 19.7474 98.7481 19.2279C98.1454 19.2279 97.5005 19.2279 96.8766 19.2279C96.8766 19.1062 96.8625 17.5405 96.8766 16.7214C96.4506 17.0467 94.8451 17.3978 94.8451 17.4797C94.8451 17.8541 94.8687 18.0858 94.8522 18.4041C94.8404 18.6404 94.8451 18.9611 94.8451 19.2302C94.605 19.2419 93.7882 19.2208 93.621 19.2302V20.7186H94.8451C94.8569 20.9456 94.8451 21.1797 94.8451 21.3879C94.8475 22.42 94.8428 23.4497 94.8475 24.4818C94.8475 24.6433 94.8687 24.8539 94.8828 25.0154C94.9699 26.0896 95.6879 27.1614 96.9119 27.3603C97.4534 27.4469 97.8983 27.3767 98.402 27.3112C98.5291 27.2948 98.7622 27.0912 98.774 26.9882C98.8234 26.5763 98.9058 26.1434 98.628 25.7572C98.3761 25.7572 98.1431 25.7806 97.9195 25.7502H97.9218Z" fill="#B9B9B9"/>
<path d="M119.979 21.622C119.976 20.8988 119.536 20.3512 119.117 19.8246C118.644 19.2325 117.931 19.0219 117.246 18.9915C116.926 18.9775 116.735 19.0032 116.58 19.0383C116.276 19.1085 116.163 19.1998 115.953 19.291C115.612 19.4408 115.417 19.7053 115.137 19.7989C115.052 19.827 114.962 19.8878 114.873 19.8785C114.729 19.8644 114.659 19.8785 114.616 19.6561C114.616 19.5649 114.616 19.3659 114.616 19.3659C114.616 19.2045 114.614 18.8838 114.614 18.8838L114.619 15.8602C114.619 15.8602 114.612 15.6683 114.616 15.5255H112.62C112.608 15.6917 112.62 15.8204 112.62 15.9538C112.62 18.0156 112.62 20.0774 112.62 22.1392C112.62 23.6814 112.613 25.2237 112.613 26.7659C112.613 27.1123 112.62 27.2106 112.62 27.2106H114.616C114.616 27.2106 114.619 27.1216 114.619 26.6442C114.619 25.3313 114.607 24.0161 114.631 22.7032C114.638 22.3311 114.713 21.9473 114.826 21.5892C115.038 20.9246 115.462 20.6765 116.165 20.6414C116.77 20.611 117.429 20.5922 117.712 21.196C117.806 21.3973 117.872 21.622 117.879 21.8373C117.9 22.5674 117.879 23.2999 117.886 24.0301C117.896 24.9569 117.886 26.8267 117.886 26.8267V27.2106C118.373 27.2269 119.976 27.2106 119.976 27.2106V26.8197C119.976 26.8197 119.984 25.5373 119.981 24.9007C119.974 23.8031 119.981 22.7149 119.976 21.6196L119.979 21.622Z" fill="#B9B9B9"/>
</svg>
