<svg width="46" height="46" viewBox="0 0 46 46" fill="none" xmlns="http://www.w3.org/2000/svg">
<circle cx="23" cy="23" r="23" fill="white"/>
<path fill-rule="evenodd" clip-rule="evenodd" d="M10 17.1C10 12.6265 13.6265 9 18.1 9H28.9C33.3734 9 37 12.6265 37 17.1V27.9C37 32.3734 33.3734 36 28.9 36H18.1C13.6265 36 10 32.3734 10 27.9V17.1ZM18.1 10.8C14.6206 10.8 11.8 13.6206 11.8 17.1V27.9C11.8 31.3793 14.6206 34.2 18.1 34.2H28.9C32.3793 34.2 35.2 31.3793 35.2 27.9V17.1C35.2 13.6206 32.3793 10.8 28.9 10.8H18.1ZM28 15.3C28 13.8088 29.2088 12.6 30.7 12.6C32.1912 12.6 33.4 13.8088 33.4 15.3C33.4 16.7912 32.1912 18 30.7 18C29.2088 18 28 16.7912 28 15.3ZM23.5 18C21.0146 18 19 20.0146 19 22.5C19 24.9854 21.0146 27 23.5 27C24.6934 27 25.838 26.5259 26.6819 25.6819C27.5259 24.838 28 23.6934 28 22.5C28 20.0146 25.9854 18 23.5 18ZM17.2 22.5C17.2 19.0205 20.0205 16.2 23.5 16.2C26.9795 16.2 29.8 19.0205 29.8 22.5C29.8 24.1708 29.1362 25.7733 27.9547 26.9547C26.7733 28.1362 25.1708 28.8 23.5 28.8C20.0205 28.8 17.2 25.9795 17.2 22.5Z" fill="#247439"/>
</svg>
