<svg width="19" height="21" viewBox="0 0 19 21" fill="none" xmlns="http://www.w3.org/2000/svg">
<path d="M0.875 5.11988C0.875 4.65561 1.20599 4.27925 1.61429 4.27925L4.16752 4.2788C4.67481 4.26417 5.12235 3.89739 5.29497 3.35477C5.29951 3.3405 5.30472 3.32291 5.32344 3.25905L5.43346 2.88369C5.50078 2.65355 5.55943 2.45304 5.64151 2.27382C5.96575 1.56579 6.56566 1.07413 7.25891 0.948254C7.43438 0.91639 7.62023 0.916524 7.83355 0.916677H11.1666C11.38 0.916524 11.5658 0.91639 11.7413 0.948254C12.4345 1.07413 13.0344 1.56579 13.3586 2.27382C13.4408 2.45304 13.4994 2.65355 13.5667 2.88369L13.6767 3.25905C13.6954 3.32291 13.7007 3.3405 13.7052 3.35477C13.8779 3.89739 14.4141 4.26462 14.9214 4.27925H17.3857C17.794 4.27925 18.125 4.65561 18.125 5.11988C18.125 5.58415 17.794 5.96052 17.3857 5.96052H1.61429C1.20599 5.96052 0.875 5.58415 0.875 5.11988Z" fill="white"/>
<path fill-rule="evenodd" clip-rule="evenodd" d="M9.11245 20.0834H9.88755C12.5543 20.0834 13.8877 20.0834 14.7546 19.2344C15.6216 18.3854 15.7103 16.9928 15.8877 14.2074L16.1433 10.194C16.2396 8.6827 16.2877 7.9271 15.8527 7.44826C15.4178 6.96941 14.6833 6.96941 13.2145 6.96941H5.78554C4.31663 6.96941 3.58218 6.96941 3.14726 7.44826C2.71234 7.9271 2.76046 8.6827 2.85672 10.194L3.11232 14.2074C3.28971 16.9928 3.37841 18.3854 4.24535 19.2344C5.1123 20.0834 6.44569 20.0834 9.11245 20.0834ZM7.81937 10.6807C7.77989 10.265 7.42763 9.9616 7.03265 10.0032C6.63766 10.0448 6.34949 10.4156 6.38898 10.8313L6.86815 15.8752C6.90765 16.2909 7.25987 16.5943 7.65482 16.5527C8.04985 16.5111 8.33802 16.1404 8.29854 15.7246L7.81937 10.6807ZM11.9673 10.0032C12.3624 10.0448 12.6505 10.4156 12.611 10.8313L12.1319 15.8752C12.0924 16.2909 11.7401 16.5943 11.3452 16.5527C10.9501 16.5111 10.662 16.1404 10.7015 15.7246L11.1806 10.6807C11.2201 10.265 11.5724 9.9616 11.9673 10.0032Z" fill="white"/>
</svg>
