<svg width="305" height="93" viewBox="0 0 305 93" fill="none" xmlns="http://www.w3.org/2000/svg">
<path d="M70.0005 53.2098C69.3514 51.4458 68.3646 49.8281 67.6663 48.0805C67.2466 47.028 66.6827 46.0307 66.1549 45.0269C65.6205 44.0134 65.0599 43.0161 64.496 42.0156C64.0895 41.2944 63.6469 40.596 63.2503 39.8716C62.7618 38.9848 62.3782 38.0297 61.811 37.1981C60.8341 35.7591 59.7161 34.4142 58.7195 32.9882C57.7327 31.5783 56.5033 30.3991 55.2182 29.2849C53.4052 27.7192 51.6185 26.1567 50.3825 24.0679C49.9039 23.2591 49.9104 22.5444 50.3497 21.7388C50.9169 20.6993 51.5595 19.6793 51.7234 18.4708C51.7824 18.0291 51.7627 17.571 51.8742 17.1487C52.1561 16.0962 52.3758 15.047 52.2873 13.949C52.2643 13.6534 52.3725 13.3838 52.743 13.3838C53.1167 13.3838 53.1692 13.6566 53.1954 13.9555C53.3003 15.1022 53.2085 16.2392 53.0151 17.3696C52.9429 17.7887 52.8446 18.2045 52.8282 18.6268C52.7921 19.4486 52.7266 20.2835 53.1626 21.0469C53.2872 21.5634 53.3888 21.6283 53.8347 21.4627C53.9756 21.4107 54.1101 21.3457 54.2412 21.2743C54.969 20.8714 55.7263 20.5109 56.4115 20.0463C58.29 18.7794 59.8735 17.2787 60.2669 14.9105C60.4013 14.0594 59.8637 13.4195 59.5194 12.7406C59.1359 11.9902 58.6146 11.3048 58.1425 10.5998C57.9917 10.3725 57.8245 10.1483 57.6311 9.95341C56.9262 9.242 56.1886 8.55982 55.5001 7.83542C55.11 7.42287 54.8051 6.9356 54.4346 6.50356C54.2051 6.23718 53.9527 5.86361 53.6576 5.79864C53.0511 5.67195 52.6708 5.32437 52.32 4.88908C51.6119 4.00875 50.8743 3.17065 49.917 2.52745C49.0154 1.91999 48.1893 1.20534 47.1467 0.835013C46.6255 0.649851 46.055 0.56864 45.5698 0.325006C45.0026 0.0423913 44.4355 -0.0160808 43.829 0.0034099C43.3798 0.0164037 42.9307 0.0034099 42.4783 0.00665835C41.5898 0.0196521 40.7505 0.0521366 39.8687 0.415963C38.1737 1.12088 36.6525 2.06293 35.2035 3.14466C34.7609 3.476 34.3281 3.74237 33.7577 3.72613C33.2135 3.71314 32.8004 3.95027 32.4037 4.3271C31.5415 5.1457 30.6793 5.98705 29.7154 6.67897C28.0467 7.8744 26.5813 9.24525 25.4994 10.9734C25.0962 11.6231 24.8208 12.3995 24.6896 13.1531C24.5388 14.0237 25.0306 14.7871 25.5191 15.4985C26.1452 16.4113 27.1157 16.8856 28.05 17.4021C29.0237 17.9381 29.6433 18.7307 29.8171 19.8384C29.8662 20.16 29.9646 20.4524 30.3482 20.6343C30.5121 20.4621 30.7317 20.3257 30.817 20.1308C31.1448 19.3804 31.5776 18.6625 31.6169 17.8082C31.6464 17.1552 31.7021 16.5055 31.748 15.7941C31.9939 15.7714 32.1841 15.7551 32.4201 15.7324C32.4857 15.9988 32.5906 16.2034 32.5775 16.4016C32.5119 17.3404 32.8234 18.2012 33.1283 19.0588C33.3118 19.5721 33.5217 20.1113 33.8626 20.5206C34.4068 21.1768 34.3872 22.0279 34.7937 22.7198C34.7248 23.7983 35.1412 24.9223 34.4593 25.9423C34.3937 26.0397 34.4167 26.1924 34.3773 26.3126C34.3052 26.5335 34.2691 26.7901 34.1282 26.959C33.6233 27.5632 33.5184 28.3331 33.2266 29.0186C32.9414 29.691 32.5152 30.3309 32.5283 31.1073C32.5283 31.1658 32.4726 31.221 32.4529 31.2795C32.3283 31.679 32.1972 32.0753 32.0857 32.4781C31.9218 33.0694 31.7743 33.6671 31.6235 34.2616C31.5645 34.4857 31.4563 34.7131 31.4628 34.934C31.5317 37.7211 31.1153 40.5213 31.8333 43.289C32.0595 44.1628 32.0824 45.0886 32.1513 45.9949C32.1972 46.5797 32.1775 47.1741 32.1513 47.7621C32.1283 48.2234 31.7513 49.1882 31.6923 49.6462C32.1414 49.8801 31.4497 50.2179 31.889 50.4681C33.9774 51.6505 35.3641 53.1805 36.9214 54.9704C38.1967 56.4355 40.0555 57.972 40.9768 59.6774C41.4816 60.6097 41.8095 61.2724 42.2357 62.2437C42.7471 63.4066 43.3864 64.7287 43.8421 65.9144C44.0617 66.3725 44.3929 66.8467 44.6125 67.2983C44.9207 66.8565 47.268 67.4542 47.6024 67.0222C48.1991 66.249 50.3792 65.0081 50.9956 64.2512C51.707 63.3806 51.5529 62.9616 52.3692 62.1722C53.4708 61.1067 54.1592 60.0347 55.5132 59.3331C56.0902 59.0342 54.7198 57.5822 54.2117 57.1664C53.5003 57.384 52.8216 57.6439 52.2545 58.1604C51.5627 58.7906 50.8284 59.3721 50.1071 59.9698C49.8285 60.2004 49.5367 60.4148 49.2515 60.6357C48.8384 60.9508 48.3663 60.9638 48.0909 60.6649C47.7303 60.2784 47.6713 59.7586 48.0614 59.411C48.6482 58.8913 49.3006 58.443 49.9301 57.972C50.8513 57.2801 51.8086 56.6336 52.6839 55.893C53.2609 55.4025 53.7724 54.8145 54.2281 54.207C55.11 53.0376 55.9558 51.8357 56.7787 50.624C57.2082 49.9938 57.5622 49.3149 57.9425 48.6522C58.0146 48.5255 58.0638 48.3793 58.0966 48.2364C58.2835 47.4145 58.4539 46.5862 58.6441 45.7643C58.9359 44.4942 60.162 42.8959 61.9586 43.0421C62.1946 43.0616 62.4438 42.9382 62.6831 42.8667C62.9322 42.792 63.1781 42.6978 63.4043 42.6198C63.7125 43.0226 63.5912 43.354 63.5322 43.682C63.4043 44.4097 63.2076 45.1374 63.4404 45.8812C63.4765 46.0014 63.5322 46.1151 63.5781 46.2321C64.3354 46.9078 64.5944 47.8303 64.7321 48.7626C64.8403 49.487 64.6534 50.1952 64.437 50.9261C64.2076 51.7025 64.2436 52.5536 63.6732 53.226C63.6469 53.2552 63.6469 53.3072 63.6273 53.3429C63.4568 53.6548 63.283 53.9666 63.106 54.2785C63.0404 54.3954 62.965 54.5124 62.8437 54.7138C63.1683 54.73 62.8995 55.1101 63.129 55.1101C64.6501 55.1101 66.0107 56.1269 67.5319 56.1496C68.1908 56.1593 68.5908 55.906 69.253 55.9417C69.371 55.9482 70.7676 56.0554 70.8889 56.0099C70.7152 55.4902 70.1939 53.7328 70.0038 53.2162L70.0005 53.2098Z" fill="white"/>
<path d="M45.4288 66.9312C45.3633 66.4147 44.8977 66.0704 44.7666 65.5636C44.3076 64.3779 43.8913 63.176 43.3798 62.0163C42.9536 61.0483 42.4356 60.116 41.9308 59.1837C41.0095 57.4782 39.9441 55.867 38.6655 54.3987C37.105 52.6088 35.3707 51.0138 33.2823 49.8314C32.843 49.5812 31.7448 49.4773 31.6431 49.4805C31.2661 49.4903 30.8071 49.552 30.5252 49.3701C29.9974 49.029 29.4368 49.0582 28.8958 48.8763C28.286 48.6684 28.4106 48.4703 27.7287 48.3598C27.4632 48.3176 27.2107 48.1779 26.955 48.0805C26.1977 47.7946 25.4469 47.5022 24.6864 47.2229C24.4077 47.1189 24.1159 47.0507 23.8307 46.963C23.4832 46.8071 23.1324 46.6511 22.7849 46.4952C22.4865 46.3555 22.2013 46.1866 21.9095 46.0242C21.244 45.6539 20.5654 45.2965 19.9097 44.9067C19.6409 44.7475 19.4278 44.4877 19.159 44.3252C18.0836 43.6756 17.2149 42.8277 16.5592 41.7655C16.3264 41.3886 16.1395 40.9729 15.8445 40.6545C15.556 40.3427 15.4675 40.0211 15.4544 39.6247C15.4412 39.2284 15.3757 38.8354 15.3363 38.4391C15.5593 38.1597 15.7658 37.8641 16.0084 37.6042C16.3526 37.2339 16.7887 36.9285 17.0706 36.5192C17.5657 35.7948 17.9755 35.0152 18.4213 34.2583C18.6311 33.8068 19.0606 33.4689 19.0639 32.9037C19.0639 32.4846 19.1229 32.0591 19.218 31.653C19.3294 31.1755 19.2704 30.7402 19.0573 30.3114C18.8967 29.7754 18.8475 29.1907 18.3918 28.7782C18.3394 28.7294 18.3131 28.6222 18.3131 28.5443C18.3131 28.0408 18.3131 27.5405 18.3295 27.037C18.3328 26.9201 18.4016 26.7934 18.4639 26.6862C18.8573 26.0397 19.1688 25.3186 19.6802 24.7793C20.2015 24.2271 20.0441 23.5124 20.5326 22.8822C20.2244 22.8108 20.0409 22.7426 19.8573 22.7296C19.2213 22.6906 18.7426 23.0804 18.2246 23.3533C17.4476 23.7626 16.6346 24.1101 15.9756 24.7079C15.4871 24.9093 15.0118 25.1367 14.5102 25.2926C14.3397 25.3446 14.1135 25.2049 13.9135 25.1659C13.6512 25.1139 13.3857 25.0619 13.1201 25.036C12.8677 25.0132 12.612 25.0197 12.3595 25.0197C11.9137 25.0197 11.4711 25.036 11.0252 25.0392C10.6285 25.0425 10.2319 25.0392 9.78272 25.0392C9.74337 24.8118 9.71059 24.6299 9.67781 24.4512C9.7401 24.0582 9.64502 23.7073 9.39586 23.3922C9.30735 23.2785 9.25489 23.1389 9.18932 23.0089C8.94672 22.5282 8.76641 22.0019 8.44513 21.5796C8.02877 21.0274 7.48455 20.5791 6.7338 20.4979C6.31088 20.2445 5.86502 20.1633 5.37326 20.3225C4.92739 21.0404 4.35367 21.7128 4.63889 22.6613C4.49792 22.9082 4.39301 23.1746 4.21598 23.3825C3.95699 23.6878 3.94715 23.9932 3.9701 24.3798C4.00288 24.854 3.88814 25.3413 3.81274 25.8221C3.72422 26.3808 3.5603 26.9331 3.52751 27.495C3.49801 28.018 3.64226 28.5475 3.63242 29.0738C3.6062 30.6168 3.54391 32.1631 3.49145 33.7061C3.48817 33.8328 3.46522 33.9627 3.41933 34.0796C3.25213 34.5084 3.03903 34.921 2.89806 35.3595C2.7243 35.8955 2.63251 36.4608 2.4522 36.9967C2.19976 37.7504 2.28172 38.608 1.74078 39.2772C1.69488 39.3324 1.70144 39.4428 1.708 39.524C1.74734 39.9821 1.61292 40.3946 1.41622 40.8072C1.2982 41.0508 1.2523 41.3302 1.18673 41.5933C1.02281 42.269 0.865447 42.9447 0.708084 43.6203C0.685135 43.721 0.685135 43.8315 0.6753 43.9354C0.63268 44.2245 0.596618 44.5169 0.540885 44.8028C0.452368 45.277 0.354016 45.7481 0.258942 46.2191C0.229436 46.362 0.167147 46.505 0.163868 46.6479C0.114692 47.8953 0.144198 49.1492 0.0196183 50.3901C-0.0984044 51.5725 0.337624 52.6185 0.750703 53.6353C1.3277 55.0516 2.09485 56.3932 2.80954 57.7511C3.45867 58.9855 4.14713 60.2004 4.81921 61.4218C4.99296 61.7369 5.16344 62.052 5.34047 62.3639C5.61258 62.8414 5.99288 63.2832 6.1404 63.7932C6.34694 64.5014 6.84854 65.0341 7.09442 65.7033C7.37636 66.3822 7.67142 67.0579 7.94025 67.7401C8.14023 68.2436 8.30743 68.7568 8.56971 69.4942C8.55331 69.7801 8.43857 70.3096 8.75657 70.8423C8.97623 71.2062 9.12703 71.6577 9.1467 72.08C9.19916 73.1585 9.18932 74.2402 9.14998 75.322C9.14015 75.637 9.00901 75.9846 8.83198 76.251C8.60905 76.5953 8.48774 76.9104 8.57954 77.3197C8.6156 77.4854 8.58938 77.7258 8.48774 77.8492C7.94025 78.5152 7.80911 79.3825 7.35997 80.0939C6.96984 80.7111 6.75347 81.4518 6.07156 81.8611C5.48472 81.9228 4.94051 81.7604 4.38974 81.5882C3.58653 81.3348 2.7243 82.069 2.9079 82.8973C3.04887 83.534 3.20623 84.2552 4.05206 84.4144C4.15369 84.4338 4.24221 84.5118 4.34384 84.5443C5.1241 84.7977 5.91092 84.9244 6.72068 84.6742C7.478 84.7749 8.08122 84.2617 8.79264 84.1675C9.39914 84.07 9.99581 83.8914 10.3204 83.3489C10.74 82.6505 11.0711 81.9001 11.4219 81.1627C11.4809 81.036 11.4842 80.8736 11.4777 80.7274C11.4613 80.3148 11.4973 79.9347 11.8383 79.6261C11.9465 79.5287 11.9792 79.3208 11.9956 79.1584C12.0383 78.7621 12.0514 78.3657 12.0776 77.9532C12.1071 77.9142 12.1366 77.8492 12.1891 77.8168C12.6284 77.5341 12.8349 77.1736 12.6841 76.6311C12.6415 76.4817 12.7595 76.277 12.8316 76.1081C12.9234 75.8969 13.0939 75.7085 13.1431 75.4909C13.3529 74.5618 14.0283 73.9316 14.5626 73.2072C15.156 73.2364 15.8314 73.0708 16.0969 73.8569C16.1789 73.9998 16.2313 74.185 16.3526 74.2824C16.7133 74.5716 16.7756 74.9484 16.7493 75.3642C16.7362 75.5753 16.7034 75.7832 16.687 75.9944C16.6215 76.8325 16.5067 77.6706 16.5198 78.5087C16.5297 79.0414 16.5887 79.6716 16.8837 80.0744C17.3821 80.7566 17.3034 81.3998 17.1263 82.1015C16.7428 82.3938 16.5067 82.7771 16.3854 83.2222C17.1395 83.8849 17.6968 84.135 18.6738 84.2747C19.0245 84.3559 19.3753 84.4371 19.7294 84.5183C20.1425 84.6125 20.5523 84.7684 20.9686 84.7814C22.6964 84.8399 24.4208 84.8789 26.1485 84.9893C28.509 85.142 30.8924 84.9796 33.2627 84.9341C34.0069 84.9211 34.7543 84.8009 35.4985 84.8074C37.164 84.8204 38.8294 84.8756 40.4948 84.9309C41.2194 84.9536 41.9439 85.0251 42.6651 85.0738C43.1536 85.1063 43.6421 85.1355 44.1339 85.168C44.0126 85.1323 43.8913 85.0608 43.77 85.064C42.9307 85.0803 42.275 84.8302 41.78 84.083C41.2095 83.2189 40.5506 82.4393 40.3735 81.3608C40.1867 80.2271 40.3473 79.2656 41.2817 78.5152C41.5865 78.2683 41.6947 77.9597 41.698 77.5699C41.698 77.1508 41.7439 76.7285 41.8291 76.3192C41.9668 75.6598 42.1373 75.0036 42.3242 74.3539C42.5406 73.61 42.7504 72.8596 43.0323 72.1352C43.3634 71.2939 43.77 70.4785 44.1404 69.6534C44.442 69.1954 44.8059 68.7601 45.0223 68.2663C45.1731 67.922 45.4682 67.3275 45.4223 66.9474L45.4288 66.9312Z" fill="white"/>
<path d="M44.147 69.6404C44.4486 69.1824 44.8125 68.7471 45.0289 68.2533C45.1797 67.909 45.2649 67.6069 45.4288 66.9345C45.737 66.4927 46.0288 66.0281 46.3632 65.5961C46.9599 64.823 47.5729 64.0628 48.1925 63.3059C48.9039 62.4353 49.6022 61.568 50.4186 60.7786C51.5201 59.7132 52.7298 58.8393 54.0838 58.1376C54.6608 57.8388 54.5625 57.8973 55.1428 57.6764C55.3657 57.5627 55.6378 57.4035 55.923 57.2801C56.5033 57.0267 57.0868 56.7636 57.6835 56.5492C58.3228 56.3185 58.9818 56.1334 59.6342 55.932C59.8374 55.8702 60.1554 55.6428 60.339 55.5454C61.2045 55.0906 61.8504 54.7788 62.8077 54.7138C63.1322 54.691 63.6633 54.6358 63.8928 54.6358C65.414 54.6358 66.6303 54.7398 68.1515 54.7593C68.8104 54.769 69.4694 54.8632 70.1284 54.9022C70.2464 54.9087 70.8267 55.2465 71.8823 55.5356C72.2954 55.5129 72.7183 55.6948 73.1412 55.7306C74.3837 55.8313 75.6361 55.8475 76.8425 55.5097C77.3802 55.357 77.8916 55.0386 78.3473 54.704C79.1243 54.1388 79.6521 53.3364 79.9636 52.4561C80.3209 51.4523 80.3635 50.4161 79.5833 49.513C79.0686 48.9185 78.5047 48.3501 78.0818 47.6971C77.7048 47.1189 77.4622 46.4465 77.213 45.7968C76.9179 45.0269 76.6917 44.231 76.4065 43.4547C75.9049 42.0838 75.8623 40.6285 75.6885 39.2122C75.4951 37.6367 75.6164 36.0352 76.0492 34.4857C76.118 34.2421 76.2131 33.9984 76.3475 33.7873C76.5311 33.5047 76.8032 33.3357 77.1671 33.4267C78.5801 33.784 79.7701 34.4857 80.6488 35.6551C81.3077 36.5355 81.7765 37.4938 81.9568 38.5917C82.0388 39.092 82.2912 39.1765 82.7994 39.001C83.0223 38.0525 83.2518 37.1397 83.4485 36.2171C83.6518 35.2523 84.1796 34.4792 84.8222 33.6963C85.8877 34.1511 86.8384 34.5994 87.2875 35.7753C87.576 36.5355 87.8317 37.2826 87.9006 38.0915C87.9104 38.1954 87.9465 38.2994 87.9891 38.3968C88.5661 39.7352 88.4186 41.0638 88.0711 42.4379C87.8514 43.3085 87.8416 44.2343 87.776 45.1406C87.7596 45.3582 87.8908 45.5856 87.9596 45.8098C88.0678 46.1671 88.1661 46.5309 88.2907 46.885C88.3661 47.0994 88.4383 47.3398 88.5825 47.5055C89.3398 48.3663 90.284 48.9575 91.3396 49.4123C92.1396 49.7567 92.9264 50.1595 93.6444 50.6435C94.4378 51.1762 94.9328 51.9786 95.2803 52.8719C95.5917 53.6743 96.0573 54.4279 96.2802 55.2498C96.6015 56.429 97.3555 57.3613 97.903 58.4105C98.185 58.953 98.2768 59.5182 98.1161 60.0737C97.7457 61.3569 97.0965 62.4386 95.8048 63.0493C94.8607 63.4976 93.9427 64.0044 93.0215 64.5014C92.4117 64.8295 91.9953 65.2615 91.7101 65.9632C91.4478 66.6064 91.3036 67.2236 91.2282 67.8927C91.1856 68.2858 91.0216 68.6626 90.92 69.0492C90.838 69.3545 90.7823 69.6664 90.6807 69.962C90.5823 70.2544 90.4414 70.537 90.3135 70.8196C89.0907 73.5321 86.9728 75.3804 84.432 76.8357C83.6551 77.2808 82.8978 77.7615 82.1404 78.2391C81.9798 78.3398 81.8028 78.4697 81.7274 78.6289C81.2651 79.6261 80.7504 80.6169 80.8914 81.7734C80.9537 82.2834 81.3208 82.6537 81.8323 82.7577C82.6879 82.9298 83.5436 83.115 84.3927 83.3229C84.8156 83.4268 85.1926 83.625 85.3926 84.0538C85.786 84.9049 85.1926 85.8794 84.2189 85.9411C83.6649 85.9736 83.1043 85.9476 82.547 85.9476C81.134 85.9476 79.7177 85.9086 78.3047 85.9606C77.1114 86.0028 76.2262 85.4246 75.5082 84.6288C74.5116 83.5243 73.61 82.3353 73.0658 80.919C72.8691 80.4025 72.3118 80.2206 71.7085 80.435C70.1251 80.9937 68.6727 81.7994 67.2925 82.7382C67.2434 82.7706 67.2204 82.8389 67.1319 82.9655C67.2237 83.128 67.322 83.3261 67.4433 83.508C67.6695 83.8426 67.9154 84.1642 68.1416 84.4988C68.2924 84.7197 68.3842 84.9536 68.1613 85.2362C68.0498 85.2557 67.9056 85.3012 67.7613 85.3044C66.2434 85.3467 64.7223 85.3921 63.2044 85.4149C60.0341 85.4669 56.8639 85.5611 53.6937 85.5416C50.8054 85.5221 47.9171 85.3791 45.0289 85.2849C44.7305 85.2752 44.4355 85.2102 44.1371 85.1745C44.0158 85.1388 43.8945 85.0673 43.7732 85.0705C42.934 85.0868 42.2783 84.8367 41.7832 84.0895C41.2128 83.2254 40.5538 82.4458 40.3768 81.3673C40.1899 80.2336 40.3506 79.2721 41.2849 78.5217C41.5898 78.2748 41.698 77.9662 41.7013 77.5764C41.7013 77.1573 41.7472 76.735 41.8324 76.3257C41.9701 75.6663 42.1406 75.0101 42.3275 74.3604C42.5438 73.6165 42.7537 72.8661 43.0356 72.1417C43.3667 71.3004 43.7732 70.485 44.1437 69.6599L44.147 69.6404Z" fill="white"/>
<path d="M204.156 60.5837C203.923 59.8106 203.569 59.1317 203.064 58.521C202.222 57.4977 201.015 57.1534 199.789 56.9455C198.239 56.6856 196.695 56.7441 195.15 57.1826C193.429 57.6731 191.865 58.3683 190.649 59.7164C190.302 60.0997 190.02 60.064 189.708 59.6352C189.446 59.2746 189.236 58.8815 188.961 58.5307C188.138 57.4782 186.918 57.1729 185.695 56.9422C183.801 56.5849 181.945 56.8415 180.129 57.436C178.952 57.8226 177.945 58.4852 177.014 59.2844C176.477 59.7456 176.07 59.5865 175.926 58.9075C175.857 58.5794 175.765 58.2481 175.637 57.9395C175.496 57.5887 175.221 57.4262 174.814 57.4912C174.542 57.5334 174.26 57.5432 173.982 57.5432C171.884 57.5432 169.782 57.5367 167.684 57.5367C167.477 57.5367 167.271 57.5724 166.982 57.5984C166.966 57.9038 166.946 58.1117 166.946 58.3196C166.946 59.1901 166.946 60.0575 166.946 60.9281C166.94 68.7308 166.933 76.5369 166.923 84.3396C166.923 84.9146 167.104 85.129 167.674 85.1323C170.372 85.142 173.074 85.142 175.772 85.1323C176.25 85.1323 176.385 84.9926 176.437 84.5378C176.46 84.3494 176.454 84.1577 176.454 83.9661C176.454 78.5574 176.457 73.1487 176.46 67.7401C176.46 67.4217 176.45 67.1034 176.441 66.785C176.431 66.4309 176.595 66.2328 176.906 66.0346C177.732 65.5149 178.647 65.4824 179.565 65.4791C179.814 65.4791 180.099 65.6188 180.309 65.7748C180.761 66.1126 180.942 66.5739 180.939 67.1586C180.922 72.8856 180.925 78.6094 180.929 84.3364C180.929 84.5768 180.981 84.8172 181.014 85.103H190.112C190.456 84.7977 190.4 84.3981 190.4 84.0246C190.403 78.6809 190.403 73.3371 190.403 67.9902C190.403 67.8408 190.42 67.6881 190.39 67.5452C190.213 66.7298 190.443 66.249 191.298 65.8787C192.197 65.4889 193.075 65.4954 193.987 65.5181C194.344 65.5279 194.58 65.7325 194.672 66.0866C194.724 66.2913 194.809 66.4959 194.816 66.7038C194.842 67.399 194.849 68.0974 194.852 68.7958C194.852 73.6522 194.852 78.5087 194.852 83.3651C194.852 83.7484 194.832 84.1285 194.842 84.5086C194.855 84.9276 194.993 85.0673 195.419 85.1193C195.567 85.1355 195.718 85.1323 195.868 85.1323C198.504 85.1323 201.137 85.1323 203.773 85.1323C203.982 85.1323 204.189 85.103 204.399 85.0868C204.464 84.9244 204.54 84.8107 204.55 84.6937C204.612 84.0408 204.7 83.3846 204.704 82.7317C204.717 77.0274 204.697 71.3231 204.72 65.6156C204.727 63.9134 204.654 62.2339 204.156 60.5837Z" fill="white"/>
<path d="M131.185 67.6101C131.097 66.4115 130.881 65.2193 130.717 64.0238C130.674 63.7087 130.661 63.3839 130.556 63.0883C130.294 62.3314 130.087 61.5648 129.723 60.8339C128.963 59.2974 127.874 58.1019 126.251 57.5269C123.606 56.5881 120.921 56.5816 118.275 57.5822C117.662 57.8128 117.088 58.1604 116.721 58.7646C116.423 59.2584 115.938 59.2844 115.587 58.8198C115.413 58.5924 115.347 58.2871 115.229 58.0175C115.144 57.8193 115.056 57.6212 114.984 57.4522C114.547 57.488 114.207 57.5367 113.869 57.5367C111.964 57.5367 110.056 57.5302 108.151 57.5269C107.968 57.5269 107.784 57.5594 107.558 57.5822C107.538 57.8388 107.505 58.0467 107.505 58.2514C107.505 68.9193 107.509 79.5839 107.509 90.2518C107.509 90.9502 107.483 91.6486 107.463 92.3503C107.45 92.8083 107.65 92.9968 108.115 92.9935C110.686 92.9773 113.256 92.961 115.823 92.9513C116.134 92.9513 116.446 92.9805 116.826 93C116.865 92.6914 116.921 92.451 116.924 92.2074C116.931 90.7228 116.928 89.2383 116.924 87.7538C116.924 86.9709 116.908 86.188 116.924 85.4084C116.931 85.1712 117.036 84.9341 117.131 84.5508C117.508 84.6937 117.793 84.7424 118 84.8919C118.849 85.5026 119.839 85.6942 120.835 85.7982C122.389 85.9639 123.907 85.6488 125.402 85.2622C125.809 85.155 126.228 85.0056 126.576 84.7782C127.412 84.2227 128.218 83.6185 128.795 82.7771C129.884 81.1919 130.536 79.4442 130.772 77.5439C130.818 77.1866 130.759 76.813 130.844 76.4687C131.231 74.9126 131.307 73.3274 131.3 71.7357C131.297 70.3583 131.277 68.981 131.176 67.6101H131.185ZM121.642 74.8412C121.593 75.5753 121.435 76.3127 121.249 77.0274C121.032 77.859 120.37 78.3105 119.501 78.3138C119.029 78.3138 118.557 78.3138 118.088 78.278C117.226 78.2131 116.914 77.8752 116.911 77.0144C116.908 75.5721 116.918 74.133 116.921 72.6907C116.921 72.3529 116.921 72.0118 116.921 71.6739H116.911C116.911 69.9165 116.931 68.1559 116.901 66.3985C116.892 65.7943 117.164 65.4272 117.665 65.1998C118.409 64.8587 119.216 64.7937 119.986 65.0081C120.727 65.2128 121.094 65.882 121.262 66.5641C121.606 67.9642 121.793 69.3935 121.767 70.8423C121.74 72.1742 121.73 73.5126 121.642 74.8412Z" fill="white"/>
<path d="M231.718 67.1716C231.682 66.8987 231.61 66.6258 231.61 66.353C231.603 65.3232 231.292 64.3422 230.987 63.3871C230.508 61.8799 229.741 60.5058 228.469 59.4728C228.056 59.1382 227.715 58.6964 227.259 58.4398C225.325 57.3418 223.194 56.9227 220.991 56.8123C219.227 56.7246 217.493 56.887 215.775 57.3255C214.057 57.7641 212.526 58.5015 211.29 59.7749C210.5 60.5902 209.874 61.5225 209.487 62.5945C209.166 63.4846 208.871 64.3844 208.579 65.2842C208.507 65.5051 208.487 65.7423 208.461 65.9729C208.316 67.3405 208.149 68.7048 208.048 70.0757C207.989 70.8716 207.976 71.6837 208.044 72.4796C208.156 73.8277 208.51 75.153 208.461 76.5206C208.451 76.7708 208.507 77.0306 208.582 77.271C208.857 78.1546 209.12 79.0479 209.451 79.912C210.192 81.8448 211.477 83.3261 213.316 84.3234C213.673 84.515 214.011 84.7684 214.395 84.8789C215.126 85.09 215.877 85.2589 216.631 85.3759C217.962 85.5838 219.283 85.9021 220.643 85.7819C221.558 85.7007 222.473 85.587 223.384 85.4571C224.551 85.2914 225.663 84.9698 226.712 84.4014C229 83.1604 230.308 81.1854 231.036 78.801C231.351 77.7778 231.505 76.6993 231.649 75.6338C231.862 74.0615 232.003 72.4795 232.183 70.8326C232.029 69.6437 231.872 68.406 231.711 67.1683L231.718 67.1716ZM222.469 73.6685C222.401 74.8282 222.328 75.9944 222.171 77.1443C221.981 78.5509 220.204 79.3013 219.034 78.4859C218.296 77.9727 217.889 77.3425 217.791 76.3452C217.604 74.4838 217.519 72.6257 217.565 70.7644C217.604 69.1791 217.762 67.5971 217.867 66.0151C217.906 65.3882 218.362 65.0114 218.811 64.719C219.493 64.2772 220.322 64.287 221.033 64.5826C221.679 64.8522 222.099 65.3817 222.23 66.1808C222.519 67.9512 222.473 69.7281 222.479 71.505C222.479 72.2262 222.515 72.9473 222.473 73.6652L222.469 73.6685Z" fill="white"/>
<path d="M150.931 56.9195C150.761 56.874 150.62 56.8123 150.479 56.8058C149.03 56.7538 147.617 56.9617 146.269 57.4945C145.863 57.6536 145.499 57.9427 145.145 58.2124C144.928 58.378 144.778 58.6282 144.578 58.8133C144.338 59.0342 144.066 59.2324 143.715 59.1024C143.355 58.9693 143.322 58.6444 143.289 58.3163C143.224 57.6439 143.079 57.5302 142.394 57.5302C140.145 57.5302 137.896 57.5302 135.647 57.5334C135.457 57.5334 135.27 57.5529 134.975 57.5724C134.942 57.8875 134.893 58.1344 134.893 58.378C134.893 66.7331 134.893 75.0881 134.893 83.4398C134.893 83.6737 134.893 83.9076 134.88 84.1382C134.828 84.9601 134.969 85.1323 135.778 85.1323C138.306 85.1388 140.834 85.1388 143.361 85.1323C144.03 85.1323 144.188 84.9568 144.188 84.2974C144.188 80.2466 144.188 76.199 144.191 72.1482C144.191 70.6247 144.115 69.1012 144.417 67.5874C144.532 67.0092 145.21 66.1548 145.801 66.0704C146.666 65.9469 147.538 65.8527 148.41 65.8008C149.112 65.7585 149.817 65.791 150.577 65.791C150.669 65.5214 150.803 65.2907 150.82 65.0569C150.885 64.2123 150.938 63.3677 150.951 62.5198C150.977 60.8241 150.974 59.1284 150.98 57.4327C150.98 57.2671 150.951 57.1046 150.931 56.9162V56.9195Z" fill="white"/>
<path d="M162.707 58.5145C162.707 58.2936 162.652 58.0727 162.622 57.8258C161.875 57.8258 161.196 57.8258 160.517 57.8258C158.334 57.8258 156.154 57.8258 153.97 57.8258C153.597 57.8258 153.429 57.998 153.433 58.378C153.433 59.2876 153.433 60.1972 153.439 61.1067C153.462 63.4164 153.511 65.726 153.511 68.0357C153.505 73.4411 153.472 78.8465 153.459 84.2519C153.459 84.5313 153.541 84.8074 153.59 85.1128H162.645C162.671 84.8691 162.714 84.6677 162.714 84.4631C162.714 75.8125 162.714 67.1651 162.714 58.5145H162.707Z" fill="white"/>
<path d="M163.324 51.8162C163.242 51.2802 163.012 50.7637 162.95 50.2244C162.763 48.6164 161.107 47.879 159.724 47.7459C158.727 47.6484 157.711 47.7296 156.705 47.7264C155.79 47.7264 155.006 48.1259 154.295 48.6132C153.931 48.8633 153.6 49.2889 153.456 49.7047C152.957 51.1372 152.869 52.6023 153.377 54.0673C153.577 54.6488 153.905 55.1231 154.436 55.4544C155.573 56.1658 156.878 56.1431 158.183 56.3348C158.999 56.2243 159.862 56.1691 160.691 55.9774C161.543 55.7793 162.317 55.331 162.671 54.4929C163.032 53.645 163.468 52.781 163.324 51.8129V51.8162Z" fill="white"/>
<path d="M285.923 68.2176C285.966 66.1776 285.589 64.1863 284.903 62.2502C284.162 60.1549 282.697 58.7614 280.697 57.8648C279.356 57.2638 277.917 57.0397 276.471 56.8773C274.16 56.6174 271.901 56.9195 269.682 57.5594C269.275 57.6764 268.872 57.8323 268.492 58.0207C266.511 59.0082 265.082 60.5448 264.063 62.4711C263.807 62.9519 263.63 63.4781 263.449 63.9946C263.299 64.4299 263.2 64.8814 263.072 65.3232C262.997 65.5896 262.882 65.8462 262.843 66.1158C262.705 67.0546 262.574 67.9967 262.476 68.942C262.302 70.6117 262.223 72.2782 262.64 73.9316C262.741 74.3409 262.836 74.7762 262.8 75.1888C262.702 76.342 263.358 77.3003 263.59 78.369C263.731 79.0252 264.174 79.6229 264.505 80.2369C265.384 81.8578 266.613 83.1572 268.193 84.1253C268.646 84.4046 269.101 84.7132 269.596 84.8821C270.275 85.116 270.99 85.2654 271.701 85.3921C273.026 85.6293 274.353 85.9119 275.717 85.7787C277.101 85.6455 278.484 85.5058 279.864 85.3369C280.73 85.2297 281.599 85.0998 282.448 84.9049C283.143 84.7425 283.844 84.5313 284.392 83.9986C284.271 82.8713 284.199 81.7701 284.021 80.6884C283.844 79.6067 283.89 78.4762 283.526 77.5244C282.756 77.6641 282.094 77.7875 281.432 77.911C281.241 77.9467 281.055 77.9954 280.868 78.0312C279.527 78.278 278.192 78.6289 276.838 78.7426C275.147 78.8823 273.603 78.4405 272.577 76.9332C272.472 76.7805 272.406 76.5986 272.354 76.4199C272.226 75.9749 272.147 75.5169 272 75.0783C271.786 74.4449 271.796 74.3637 272.354 73.9771C274.514 73.9771 276.675 73.9868 278.835 73.9836C280.982 73.9836 283.13 74.0063 285.257 73.9641C285.326 73.1227 285.385 72.3951 285.448 71.6642C285.611 70.5175 285.89 69.3708 285.913 68.2208L285.923 68.2176ZM271.714 68.8835C271.77 68.4028 271.773 67.9155 271.888 67.4542C272.026 66.9052 272.2 66.3465 272.472 65.8527C272.767 65.3167 273.285 64.9886 273.931 64.9497C274.334 64.9237 274.744 64.9139 275.147 64.9334C276.104 64.9789 276.963 65.7488 277.137 66.6908C277.278 67.4477 277.265 68.5457 277.111 69.0005C276.583 69.2181 272.272 69.1661 271.711 68.8803L271.714 68.8835Z" fill="white"/>
<path d="M304.921 57.907C304.725 57.8875 304.541 57.8485 304.354 57.8485C303.197 57.855 302.043 57.8875 300.886 57.8778C300.561 57.8778 300.24 57.7511 299.873 57.6764C299.873 57.3613 299.873 57.1339 299.873 56.9032C299.873 55.6948 299.879 54.4864 299.876 53.2747C299.876 52.9629 299.912 52.6283 299.656 52.4659H291.591C291.424 53.3917 291.244 54.2558 291.116 55.1263C290.985 56.0164 290.903 56.913 290.795 57.8485C290.503 57.8778 290.231 57.9038 289.959 57.9298C289.178 57.8875 288.401 57.894 287.628 57.9233C287.601 58.1149 287.582 58.1994 287.582 58.2806C287.569 60.2719 287.556 62.2632 287.552 64.2512C287.552 64.3909 287.624 64.5306 287.664 64.6703C288.057 64.719 288.447 64.7872 288.844 64.81C289.287 64.8327 289.729 64.8165 290.129 64.8165C290.434 65.1868 290.45 65.5409 290.431 65.9079C290.395 66.5414 290.352 67.1781 290.352 67.8115C290.342 71.3751 290.355 74.9386 290.339 78.5022C290.336 79.3988 290.48 80.7046 290.48 80.8183C290.48 81.546 291.083 82.7771 291.47 83.2806C291.929 83.8784 292.45 84.5216 293.099 84.8594C294.417 85.5416 295.916 85.7527 297.388 85.769C298.902 85.7852 300.42 85.6163 301.935 85.5058C302.699 85.4506 303.462 85.3499 304.262 85.2654C304.338 85.0348 304.449 84.8399 304.456 84.645C304.525 82.4101 304.577 80.1719 304.639 77.8492C304.298 77.8492 304.072 77.8427 303.846 77.8492C302.967 77.872 302.089 77.9207 301.213 77.9142C300.207 77.9077 299.869 77.5471 299.869 76.5629C299.869 72.8921 299.866 69.2246 299.866 65.5539C299.866 65.3687 299.892 65.1868 299.915 64.9204C300.269 64.9009 300.581 64.8652 300.892 64.8684C301.964 64.8717 303.033 64.9009 304.105 64.8944C304.679 64.8912 304.839 64.7288 304.856 64.17C304.911 62.221 304.957 60.2719 305 58.3228C305 58.2026 304.957 58.0792 304.925 57.9103L304.921 57.907Z" fill="white"/>
<path d="M259.06 66.2945C258.984 65.3752 259.096 64.4202 258.64 63.5528C258.604 63.4846 258.63 63.3839 258.611 63.3027C258.519 62.9161 258.44 62.5231 258.322 62.143C258.214 61.7987 258.06 61.4706 257.925 61.136C257.243 59.4338 256.07 58.1604 254.335 57.5399C252.116 56.7441 249.834 56.6336 247.513 57.2053C246.392 57.4815 245.421 57.9298 244.71 58.8556C244.513 59.1122 244.277 59.3591 243.9 59.2324C243.569 59.1219 243.579 58.8198 243.556 58.5437C243.546 58.4398 243.527 58.3326 243.497 58.2319C243.32 57.6569 243.002 57.4555 242.396 57.5075C242.14 57.5302 241.884 57.5432 241.625 57.5432C239.72 57.5367 237.812 57.5269 235.908 57.5204C235.763 57.5204 235.616 57.5529 235.39 57.5822C235.367 57.9038 235.327 58.2124 235.327 58.521C235.327 69.5722 235.327 80.6202 235.327 91.6714C235.327 91.9248 235.308 92.1814 235.331 92.4348C235.367 92.8441 235.547 92.9935 235.957 92.9903C238.376 92.9805 240.796 92.9708 243.218 92.961C243.664 92.961 244.11 92.961 244.664 92.961C244.71 92.7596 244.766 92.529 244.818 92.2983C244.818 90.0894 244.818 87.8837 244.818 85.6748C244.838 85.3272 244.854 84.9796 244.874 84.6028C245.474 84.554 245.835 84.9081 246.264 85.0543C247.09 85.3337 247.916 85.6845 248.769 85.7884C250.336 85.9801 251.89 85.7332 253.395 85.2654C253.978 85.0835 254.549 84.8172 255.07 84.4956C257.125 83.2254 257.965 81.1529 258.571 78.9927C258.86 77.9662 258.945 76.8747 259.04 75.806C259.178 74.2467 259.319 72.6777 259.319 71.1152C259.319 69.5072 259.191 67.8992 259.06 66.2945ZM249.601 76.0626C249.556 76.8487 249.159 77.4724 248.618 78.0052C248.464 78.1578 248.208 78.2813 247.995 78.291C247.333 78.3138 246.664 78.33 246.008 78.2488C245.084 78.1351 244.877 77.8298 244.825 76.7643C244.835 75.1205 244.851 73.4768 244.851 71.8299C244.851 70.0789 244.835 68.3313 244.825 66.5804C244.854 65.6935 245.126 65.3102 246.064 65.0828C246.595 64.9529 247.166 64.9367 247.716 64.9496C247.969 64.9561 248.254 65.1088 248.457 65.2777C249.146 65.8462 249.533 66.5999 249.592 67.4834C249.782 70.3421 249.769 73.204 249.598 76.0626H249.601Z" fill="white"/>
<path d="M179.65 28.1577C178.896 27.3164 177.962 26.7836 176.772 26.5302C175.745 26.3126 174.844 26.3483 173.851 26.5692C173.005 26.7576 172.261 27.0695 171.625 27.6022C170.189 28.8107 169.543 30.4284 169.52 32.2475C169.497 33.9919 170.159 35.5025 171.49 36.6946C172.329 37.445 173.326 37.7764 174.431 37.9745C175.631 38.1922 176.736 38.0038 177.781 37.5035C180.034 36.425 180.978 34.5117 181.079 32.6601C181.109 30.62 180.647 29.2654 179.653 28.1577H179.65ZM172.867 33.313C172.867 32.6568 172.887 31.9974 172.861 31.3412C172.831 30.5713 173.093 29.8859 173.624 29.3824C174.713 28.3461 175.841 28.1837 176.978 29.3531C177.49 29.8761 177.854 30.5031 177.755 31.2957C177.719 31.5881 177.749 31.8869 177.749 32.1858H177.752C177.752 32.5659 177.762 32.9492 177.752 33.3293C177.722 34.2745 176.827 35.4212 175.923 35.7363C175.139 36.0125 174.451 35.7591 173.89 35.2848C173.303 34.7878 172.861 34.1446 172.864 33.3098L172.867 33.313Z" fill="white"/>
<path d="M154.334 33.0174C154.292 31.8447 153.757 30.8702 152.859 30.1847C152.059 29.574 151.161 29.0868 150.171 28.7587C149.046 28.3851 147.548 28.0473 147.217 26.7511C147.099 26.2931 147.096 25.6694 147.377 25.2049C147.679 24.7046 148.246 24.2563 148.82 24.1524C148.899 24.1394 150.23 23.6131 151.872 24.357C152.007 24.4188 152.167 24.4837 152.298 24.5422C152.862 24.7956 153.046 24.7339 153.236 24.1621C153.328 23.8828 153.462 23.6164 153.538 23.3338C153.59 23.1291 153.577 22.905 153.587 22.7653C153.056 22.5509 152.629 22.3657 152.193 22.2066C151.997 22.1351 151.78 22.0994 151.577 22.0701C150.479 21.9109 149.256 21.9207 148.315 22.1156C147.171 22.3527 146.141 22.9699 145.394 23.9575C145.073 24.383 144.824 24.7956 144.663 25.3251C144.43 26.0885 144.41 26.7479 144.669 27.5145C144.942 28.3169 145.351 28.9471 146.004 29.4668C146.846 30.1393 147.833 30.5258 148.813 30.9384C149.708 31.3152 150.6 31.6628 151.259 32.4814C152.01 33.4137 151.505 34.7423 150.62 35.2686C150.548 35.3108 149.774 35.7688 149.377 35.7526C148.404 35.7201 147.414 35.8403 146.466 35.509C145.974 35.3368 145.489 35.1516 144.945 34.9535C144.692 35.6584 144.473 36.2788 144.247 36.909C145.007 37.4483 145.653 37.6399 146.587 37.8641C146.958 37.9128 147.348 37.9778 147.718 37.9778C149.158 37.968 149.518 38.0298 150.39 37.8381C150.948 37.7147 151.502 37.51 151.99 37.2306C153.482 36.3698 154.413 35.1386 154.347 33.3357C154.344 33.2285 154.347 33.1246 154.344 33.0174H154.334Z" fill="white"/>
<path d="M117.01 24.2986C116.485 23.5384 115.76 23.0219 114.944 22.6548C114.531 22.4697 114.275 22.3917 113.823 22.278C113.502 22.1968 112.944 22.1059 112.626 22.0994C111.187 22.0636 109.738 21.9792 108.322 22.3105C107.902 22.408 107.364 22.434 107.253 23.0284C107.23 23.1908 107.187 23.3565 107.187 23.5189C107.184 27.9791 107.184 32.4392 107.187 36.8993C107.187 37.0422 107.174 37.1787 107.197 37.3216V37.7764H110.341C110.341 37.51 110.341 37.3248 110.341 37.1397C110.345 36.7336 110.335 36.6946 110.341 36.2918C110.338 35.1062 110.341 35.2458 110.341 35.0542C110.358 34.1219 110.341 33.5339 110.341 32.6048C110.341 32.4229 110.325 32.1793 110.341 31.9584C110.676 31.9584 110.767 31.9681 111.04 31.9584C111.63 31.9292 112.223 31.9292 112.807 31.8512C113.459 31.7635 114.167 31.7115 114.721 31.4127C115.492 30.9904 116.213 30.4154 116.816 29.7722C117.229 29.3304 117.573 28.6872 117.646 28.0992C117.8 26.8031 117.816 25.4777 117.006 24.3083L117.01 24.2986ZM114.075 25.0425C114.269 25.2374 114.38 25.3511 114.525 25.6629C114.702 26.0527 114.751 26.3971 114.79 26.8096C114.875 27.7159 114.393 28.3331 113.846 28.9373C113.734 29.0608 113.577 29.1712 113.443 29.2362C112.59 29.6423 111.902 29.756 111.066 29.678C110.518 29.626 110.348 29.4831 110.348 28.9244C110.345 27.573 110.338 26.1567 110.331 24.7371C110.331 24.6559 110.348 24.5617 110.348 24.4188C111.174 24.3343 112.049 24.3375 112.908 24.5C113.131 24.5422 113.357 24.6104 113.571 24.6981C113.748 24.7696 113.948 24.906 114.082 25.0425H114.075Z" fill="white"/>
<path d="M123.442 32.9654C123.97 32.9654 124.819 32.9589 125.347 32.9654C126.346 32.9784 127.382 32.9589 128.382 32.9849C128.966 33.0012 129.353 32.6243 129.346 32.0494C129.34 31.5881 129.287 31.1268 129.222 30.6688C129.071 29.6195 128.691 28.6677 127.946 27.8881C127.228 27.1377 126.428 26.592 125.337 26.4198C124.688 26.3191 124.13 26.3223 123.471 26.449C122.76 26.5855 122.121 26.7414 121.527 27.2027C120.013 28.3819 119.039 29.9151 118.99 31.9097C118.98 32.3742 119.016 32.725 119.062 33.1863C119.167 34.2226 119.409 35.0184 119.947 35.7786C121.16 37.5003 122.989 38.0265 124.979 38.0557C125.819 38.0655 126.651 38.0655 127.52 37.7699C128.632 37.3931 128.815 37.4678 128.432 36.1879C128.379 36.0125 128.268 35.8533 128.156 35.6259C127.497 35.7493 126.864 35.928 126.215 35.9962C125.042 36.1197 123.56 35.8338 123.075 35.5317C122.442 35.1386 121.806 34.7001 121.616 33.9172C121.547 33.6281 121.524 33.3682 121.58 32.9654C122.455 32.9654 122.783 32.9654 123.442 32.9654ZM125.245 28.606C126.183 29.2524 126.284 29.8729 126.333 30.8604C124.838 30.8604 123.589 30.8409 121.816 30.8604C121.862 30.5453 121.816 29.3726 123.032 28.6352C123.648 28.2617 124.704 28.2357 125.245 28.606ZM126.93 30.698C126.979 30.7435 127.028 30.7695 127.084 30.7727C127.028 30.7695 126.976 30.7435 126.93 30.698ZM127.523 30.5616C127.478 30.5973 127.432 30.6298 127.392 30.659C127.435 30.633 127.478 30.6005 127.523 30.5616Z" fill="white"/>
<path d="M194.495 30.6493C194.4 29.7397 194.069 29.0998 193.659 28.3981C193.141 27.7127 192.58 27.0175 191.754 26.7349C191.121 26.5172 190.721 26.436 190.059 26.3678C189.744 26.3353 188.803 26.4913 188.558 26.5855C187.915 26.8259 187.581 26.9201 187.099 27.3618C186.712 27.5113 186.272 28.0895 185.915 27.6282C185.791 27.469 185.774 27.2644 185.709 27.0922C185.676 26.9395 185.643 26.7901 185.614 26.6602C184.364 26.6602 184.102 26.6699 183.604 26.6667V28.2584C183.607 28.5508 183.597 28.8724 183.604 29.168C183.624 29.8632 183.607 30.5681 183.604 31.2632C183.604 31.7667 183.604 32.7348 183.604 32.7348V35.1256C183.604 35.1256 183.604 39.4428 183.604 41.6258C183.604 42.0578 183.604 42.3372 183.604 42.3372C183.604 42.3372 185.574 42.3177 186.227 42.3177V38.1629C186.227 37.9713 186.227 37.8511 186.246 37.5782C186.276 37.1592 186.354 37.0162 186.79 37.0357C186.895 37.039 187.004 37.0487 187.099 37.0942C187.325 37.2046 187.564 37.4678 187.836 37.6075C188.626 38.0103 189.298 38.1402 190.256 37.9908C192.423 37.6529 193.57 36.2496 194.429 34.4565C194.475 34.3623 194.482 34.2486 194.498 34.1511C194.773 32.6796 194.629 31.8837 194.498 30.6428L194.495 30.6493ZM188.135 35.9507C187.177 35.7461 186.164 34.3752 186.213 33.4137C186.233 33.0336 186.213 32.6536 186.213 32.2703C186.213 32.2703 186.213 32.2703 186.217 32.2703C186.217 31.9097 186.23 31.5491 186.217 31.1918C186.177 30.1783 187.322 28.9633 188.253 28.8366C189.489 28.6677 190.282 28.7327 191.003 29.6975C191.416 30.253 191.551 30.8214 191.567 31.5199C191.58 31.9876 191.557 32.4911 191.561 32.9784C191.577 34.8138 189.931 36.3373 188.131 35.9507H188.135Z" fill="white"/>
<path d="M136.375 35.7428C136.067 35.7039 135.746 35.6519 135.47 35.5057C134.795 35.1451 134.883 34.3623 134.903 33.6606C134.942 32.267 134.926 30.8702 134.92 29.4733C134.92 29.2297 134.92 28.9828 134.92 28.7554H137.526C137.532 28.2942 137.526 27.4106 137.526 26.6894C136.687 26.6894 135.788 26.6894 134.92 26.6894C134.92 26.5205 134.9 24.3473 134.92 23.2103C134.326 23.6619 132.09 24.1491 132.09 24.2628C132.09 24.7826 132.123 25.1042 132.1 25.546C132.084 25.8741 132.09 26.3191 132.09 26.6927C131.756 26.7089 130.618 26.6797 130.385 26.6927V28.7587H132.09C132.107 29.0738 132.09 29.3986 132.09 29.6877C132.094 31.1203 132.087 32.5496 132.094 33.9822C132.094 34.2063 132.123 34.4987 132.143 34.7228C132.264 36.2139 133.264 37.7017 134.969 37.9778C135.723 38.098 136.342 38.0005 137.044 37.9096C137.221 37.8868 137.546 37.6042 137.562 37.4613C137.631 36.8895 137.745 36.2886 137.359 35.7526C137.008 35.7526 136.683 35.7851 136.372 35.7428H136.375Z" fill="white"/>
<path d="M167.094 30.0126C167.091 29.0088 166.477 28.2487 165.894 27.5178C165.235 26.6959 164.242 26.4036 163.288 26.3613C162.842 26.3418 162.576 26.3776 162.36 26.4263C161.937 26.5237 161.779 26.6504 161.488 26.7771C161.012 26.985 160.74 27.3521 160.35 27.482C160.232 27.521 160.108 27.6055 159.983 27.5925C159.783 27.573 159.685 27.5925 159.626 27.2839C159.626 27.1572 159.626 26.8811 159.626 26.8811C159.626 26.6569 159.622 26.2119 159.622 26.2119L159.629 22.0149C159.629 22.0149 159.619 21.7485 159.626 21.5504H156.846C156.829 21.781 156.846 21.9597 156.846 22.1448C156.846 25.0067 156.846 27.8686 156.846 30.7305C156.846 32.8712 156.836 35.0119 156.836 37.1527C156.836 37.6334 156.846 37.7699 156.846 37.7699H159.626C159.626 37.7699 159.629 37.6464 159.629 36.9837C159.629 35.1614 159.612 33.3357 159.645 31.5134C159.655 30.9969 159.76 30.4641 159.917 29.9671C160.212 29.0445 160.803 28.7002 161.783 28.6515C162.625 28.6092 163.543 28.5833 163.937 29.4214C164.068 29.7007 164.16 30.0126 164.169 30.3114C164.199 31.325 164.169 32.3417 164.179 33.3552C164.192 34.6416 164.179 37.2371 164.179 37.2371V37.7699C164.858 37.7926 167.091 37.7699 167.091 37.7699V37.2274C167.091 37.2274 167.1 35.4472 167.097 34.5637C167.087 33.0401 167.097 31.5296 167.091 30.0093L167.094 30.0126Z" fill="white"/>
</svg>
