<svg width="22" height="23" viewBox="0 0 22 23" fill="none" xmlns="http://www.w3.org/2000/svg">
<path d="M18.2352 18.153C16.7719 18.5272 15.2305 18.4265 13.9103 19.3261C12.3169 20.3985 11.1787 22.6224 9.06505 22.1402C6.17741 21.2765 7.53018 17.8435 7.77081 15.526C7.93991 13.9643 7.41311 12.3593 7.7448 10.8048C8.096 9.16383 9.45527 8.04828 10.9641 7.99071C12.3819 7.93313 13.2469 8.86155 14.3786 9.62444C15.4972 10.3945 16.85 10.4953 18.0466 11.0639C19.2888 11.6612 20.1148 12.8847 20.3099 14.3673C20.5506 16.1234 19.8612 17.7212 18.2352 18.1458V18.153Z" fill="#AFD952"/>
<path d="M20.2254 11.5029C19.1783 10.1282 17.5459 9.96271 16.102 9.40133C14.6387 8.83277 13.6501 7.41494 12.0437 7.22782C10.5674 7.04069 9.03903 7.79639 8.02446 8.97671C6.82778 10.3513 6.73022 11.9995 6.87331 13.8203C6.94485 14.8063 6.99037 15.6916 6.83428 16.6704C6.6912 17.5412 6.49609 18.4049 6.41154 19.2973C6.26196 21.0318 6.74974 22.428 8.38216 22.9174C8.40167 22.9246 8.42118 22.9246 8.44069 22.9246C10.1902 23.2917 11.4779 22.2625 12.7396 21.039C13.5461 20.2401 14.281 19.6068 15.3736 19.3693C16.2061 19.1822 17.0581 19.1462 17.8905 18.9375C19.3344 18.5632 20.5701 17.534 21.0383 15.9219C21.4611 14.4465 21.1359 12.6976 20.2384 11.5101L20.2254 11.5029ZM18.2352 18.153C16.7719 18.5272 15.2305 18.4265 13.9103 19.3261C12.3169 20.3985 11.1787 22.6224 9.06505 22.1402C6.17741 21.2765 7.53018 17.8435 7.77081 15.526C7.93991 13.9643 7.41311 12.3593 7.7448 10.8048C8.096 9.16383 9.45527 8.04828 10.9641 7.99071C12.3819 7.93313 13.2469 8.86155 14.3786 9.62444C15.4972 10.3945 16.85 10.4953 18.0466 11.0639C19.2888 11.6612 20.1148 12.8847 20.3099 14.3673C20.5506 16.1234 19.8612 17.7212 18.2352 18.1458V18.153Z" fill="#AFD952"/>
<path d="M20.1994 4.51452C20.1408 5.51491 19.64 6.57289 18.9376 7.20623C18.5669 7.53729 18.0987 7.71722 17.6109 7.71002C16.915 7.68123 16.3492 7.2854 16.05 6.60167C15.7834 5.91075 15.7378 5.14067 15.7703 4.40657C15.7899 3.78042 15.8809 3.16867 16.1671 2.61449C16.7004 1.62849 17.8775 1.42698 18.7881 1.8516C19.7441 2.30502 20.2579 3.40617 20.1994 4.51452Z" fill="#AFD952"/>
<path d="M18.9376 7.20623C18.5669 7.53729 18.0987 7.71722 17.6109 7.71002C16.915 7.68123 16.3492 7.2854 16.05 6.60167C15.7834 5.91075 15.7378 5.14067 15.7703 4.40657C15.7899 3.78042 15.8809 3.16867 16.1671 2.61449C16.7004 1.62849 17.8775 1.42698 18.7881 1.8516C19.7441 2.30502 20.2579 3.40617 20.1994 4.51452C20.1408 5.51491 19.64 6.57289 18.9376 7.20623Z" fill="#AFD952"/>
<path d="M13.6697 4.67286C13.4876 5.09748 13.2404 5.5437 12.8177 5.70924C12.2258 5.94674 11.621 5.7884 11.1722 5.3134C10.7625 4.83839 10.5024 4.22664 10.3007 3.61489C10.1317 3.0895 10.0211 2.54972 10.0536 1.98835C10.0796 1.48455 10.2227 0.980758 10.5089 0.584918C10.7755 0.217868 11.2048 0.052335 11.6275 0.00915254C12.5575 -0.0844094 13.403 0.548933 13.7932 1.47016C14.203 2.46335 14.0859 3.70845 13.6697 4.67286Z" fill="#AFD952"/>
<path d="M13.6697 4.67286C13.4876 5.09748 13.2404 5.5437 12.8177 5.70924C12.2258 5.94674 11.621 5.7884 11.1722 5.3134C10.7625 4.83839 10.5024 4.22664 10.3007 3.61489C10.1317 3.0895 10.0211 2.54972 10.0536 1.98835C10.0796 1.48455 10.2227 0.980758 10.5089 0.584918C10.7755 0.217868 11.2048 0.052335 11.6275 0.00915254C12.5575 -0.0844094 13.403 0.548933 13.7932 1.47016C14.203 2.46335 14.0859 3.70845 13.6697 4.67286Z" fill="#AFD952"/>
<path d="M5.52704 13.4245C5.26039 13.7628 4.87017 13.9355 4.47345 14.0219C3.5044 14.2234 2.43129 13.9571 1.61833 13.3453C0.805368 12.7408 0.317592 11.6252 0.571235 10.5529C0.831383 9.4877 1.77442 8.86155 2.74347 8.96951C3.36782 9.04148 3.92063 9.37255 4.3954 9.82596C4.94171 10.3513 5.48802 10.9991 5.76768 11.762C5.95629 12.3521 5.91076 12.9351 5.52704 13.4245Z" fill="#AFD952"/>
<path d="M5.52704 13.4245C5.26039 13.7628 4.87017 13.9355 4.47345 14.0219C3.5044 14.2234 2.43129 13.9571 1.61833 13.3453C0.805368 12.7408 0.317592 11.6252 0.571235 10.5529C0.831383 9.4877 1.77442 8.86155 2.74347 8.96951C3.36782 9.04148 3.92063 9.37255 4.3954 9.82596C4.94171 10.3513 5.48802 10.9991 5.76768 11.762C5.95629 12.3521 5.91076 12.9351 5.52704 13.4245Z" fill="#AFD952"/>
<path d="M8.12852 6.96872C8.12852 7.47252 8.00495 7.96912 7.53018 8.14185C7.08793 8.30738 6.60015 8.27139 6.1514 8.14185C5.21487 7.88275 4.31085 7.18464 3.81657 6.25621C3.39383 5.42135 3.30929 4.18346 3.96616 3.45655C4.24582 3.13268 4.76611 3.04632 5.14333 3.04632C5.6246 3.03912 6.10587 3.20465 6.5026 3.49973C6.97736 3.85239 7.30255 4.35619 7.5627 4.89597C7.86187 5.53651 8.1025 6.24902 8.12201 6.96872H8.12852Z" fill="#AFD952"/>
<path d="M7.53018 8.14185C7.08793 8.30738 6.60015 8.27139 6.1514 8.14185C5.21487 7.88275 4.31085 7.18464 3.81657 6.25621C3.39383 5.42135 3.30929 4.18346 3.96616 3.45655C4.24582 3.13268 4.76611 3.04632 5.14333 3.04632C5.6246 3.03912 6.10587 3.20465 6.5026 3.49973C6.97736 3.85239 7.30255 4.35619 7.5627 4.89597C7.86187 5.53651 8.1025 6.24902 8.12201 6.96872C8.12201 7.47252 7.99844 7.96912 7.52367 8.14185H7.53018Z" fill="#AFD952"/>
</svg>
