<svg width="37" height="38" viewBox="0 0 37 38" fill="none" xmlns="http://www.w3.org/2000/svg">
<path d="M18.5 19C20.3399 19 22.1045 18.2493 23.4056 16.9131C24.7066 15.5769 25.4375 13.7647 25.4375 11.875C25.4375 9.98533 24.7066 8.17306 23.4056 6.83686C22.1045 5.50067 20.3399 4.75 18.5 4.75C16.6601 4.75 14.8955 5.50067 13.5944 6.83686C12.2934 8.17306 11.5625 9.98533 11.5625 11.875C11.5625 13.7647 12.2934 15.5769 13.5944 16.9131C14.8955 18.2493 16.6601 19 18.5 19ZM23.125 11.875C23.125 13.1348 22.6377 14.343 21.7704 15.2338C20.903 16.1246 19.7266 16.625 18.5 16.625C17.2734 16.625 16.097 16.1246 15.2296 15.2338C14.3623 14.343 13.875 13.1348 13.875 11.875C13.875 10.6152 14.3623 9.40704 15.2296 8.51624C16.097 7.62544 17.2734 7.125 18.5 7.125C19.7266 7.125 20.903 7.62544 21.7704 8.51624C22.6377 9.40704 23.125 10.6152 23.125 11.875ZM32.375 30.875C32.375 33.25 30.0625 33.25 30.0625 33.25H6.9375C6.9375 33.25 4.625 33.25 4.625 30.875C4.625 28.5 6.9375 21.375 18.5 21.375C30.0625 21.375 32.375 28.5 32.375 30.875ZM30.0625 30.8655C30.0602 30.2812 29.7064 28.5238 28.1385 26.9135C26.6308 25.365 23.7933 23.75 18.5 23.75C13.2044 23.75 10.3693 25.365 8.8615 26.9135C7.29363 28.5238 6.94213 30.2812 6.9375 30.8655H30.0625Z" fill="black"/>
</svg>
