<svg width="13" height="13" viewBox="0 0 13 13" fill="none" xmlns="http://www.w3.org/2000/svg">
<g clip-path="url(#clip0_263_129)">
<path d="M9.32634 8.27044C10.0576 7.27257 10.3851 6.03539 10.2434 4.80641C10.1017 3.57743 9.50111 2.44728 8.56189 1.64207C7.62268 0.836862 6.41407 0.415971 5.17786 0.463604C3.94165 0.511237 2.76901 1.02388 1.89454 1.89898C1.02007 2.77407 0.508266 3.94708 0.461517 5.18332C0.414768 6.41957 0.836524 7.62787 1.64241 8.56651C2.44829 9.50515 3.57886 10.1049 4.80794 10.2457C6.03703 10.3866 7.27397 10.0582 8.27132 9.32622H8.27056C8.29322 9.35643 8.31738 9.38512 8.34457 9.41307L11.2521 12.3206C11.3937 12.4623 11.5858 12.542 11.7862 12.542C11.9865 12.5421 12.1787 12.4626 12.3204 12.321C12.4621 12.1794 12.5417 11.9873 12.5418 11.787C12.5419 11.5866 12.4623 11.3945 12.3207 11.2528L9.41319 8.3452C9.38619 8.31787 9.35716 8.29338 9.32634 8.27044ZM9.52118 5.36742C9.52118 5.91288 9.41375 6.453 9.20501 6.95695C8.99627 7.46089 8.69031 7.91879 8.30461 8.30449C7.91891 8.69019 7.46101 8.99614 6.95707 9.20488C6.45313 9.41362 5.913 9.52106 5.36754 9.52106C4.82207 9.52106 4.28195 9.41362 3.77801 9.20488C3.27407 8.99614 2.81617 8.69019 2.43047 8.30449C2.04477 7.91879 1.73881 7.46089 1.53007 6.95695C1.32133 6.453 1.21389 5.91288 1.21389 5.36742C1.21389 4.2658 1.65151 3.2093 2.43047 2.43034C3.20943 1.65139 4.26592 1.21377 5.36754 1.21377C6.46915 1.21377 7.52565 1.65139 8.30461 2.43034C9.08357 3.2093 9.52118 4.2658 9.52118 5.36742Z" fill="black"/>
</g>
<defs>
<clipPath id="clip0_263_129">
<rect width="12.0833" height="12.0833" fill="white" transform="translate(0.458496 0.458313)"/>
</clipPath>
</defs>
</svg>
